<svg width="478" height="280" xmlns="http://www.w3.org/2000/svg" xmlns:xlink="http://www.w3.org/1999/xlink"><defs><path id="a" d="M.602.291H41.22v35.616H.602z"/><path id="c" d="M0 280h477.857V.291H0z"/><path id="e" d="M0 280h477.857V.291H0z"/></defs><g fill="none" fill-rule="evenodd"><path d="M440.489 63.337c-3.731-.81-6.34-3.43-5.956-6.147l2.772-19.583c.413-2.936 4.165-4.87 8.38-4.322 4.254.548 7.293 3.372 6.879 6.307l-2.77 19.584c-.416 2.935-4.17 4.87-8.383 4.321a11.15 11.15 0 01-.922-.16" fill="#8C6B51"/><path d="M461.795 19.928c.697-9.743-7.493-18.265-18.293-19.035a21.11 21.11 0 00-4.809.207c-4.817.766-9.224 3.21-12.18 6.736-1.51 1.8-2.512 3.8-3.23 5.965-.9 2.724-.925 5.521-1.13 8.388-.189 2.628-.63 5.352-.529 7.99.177 4.608.941 7.222 3.57 11.391 4.918 7.802 13.105 4.999 18.238 1.556 4.227-2.835 9.345-4.853 12.437-8.515 3.438-4.07 5.43-9.08 5.888-14.2.014-.16.026-.321.038-.483" fill="#8C6B51"/><path d="M461.795 19.929c.697-9.743-7.493-18.265-18.293-19.036-.77-.055-5.978 9.66-8.417 20.559-2.654 11.867-2.483 25.008-1.478 25.082 3.326.247 8.658-.892 11.757-1.99 4.799-1.698 7.413-6.27 10.505-9.932 3.438-4.07 5.43-9.082 5.888-14.2.014-.16.026-.323.038-.483" fill="#7C6049"/><g transform="translate(421.008)"><mask id="b" fill="#fff"><use xlink:href="#a"/></mask><path d="M29.09 34.522c.584-3.166 1.128-6.317 2.262-8.675 1.301-2.7 3.064-2.724 3.22-2.724l.007.001c1.464.296 2.883 1.122 3.11 4.25.272 3.76-4.544 8.533-4.544 8.533s3.685-1.311 6.257-6.718a.06.06 0 00.022-.037 29.323 29.323 0 001.53-5.79c.024-.176.056-.349.08-.523 1.094-7.723-2.75-15.121-9.204-19.165a.35.35 0 01-.074-.517c.195-.23.36-.429.49-.592a.352.352 0 00.053-.337.323.323 0 00-.253-.214L24.322.798 23.295.637A33.637 33.637 0 0019.95.322c-3.653-.168-6.62.35-9.046 1.45-.007-.01-.008-.001-.018.013-.675.301-1.304.65-1.901 1.052-4.16 2.772-6.357 7.651-7.57 13.832-.351 1.76-.903 3.544-.802 5.384.249 4.545.984.437.984.437l.464-3.416c.157-1.107.29-2.208.459-3.289.628-1.879 1.232-3.687 2.245-5.384.558-.946 1.044-1.821 1.789-2.657a15.592 15.592 0 012.893-2.523 1.102 1.102 0 011.42.153c1.537 1.576 4.03 3.276 7.901 3.885 2.7.425 5.17-.28 7.25-1.385a1.19 1.19 0 011.51.338c.804 1.04 1.196 2.414 1.258 3.69.083 1.975-.403 3.933-.24 5.903.07.877.338 1.746.788 2.524.463.802.616 1.76.427 2.678-.638 3.1-1.424 5.797-2.383 8.092 0 0 1.156 6.422 1.71 3.423" fill="#1E1A11" mask="url(#b)"/></g><path d="M50.006 135.281c3.034-1.509 4.983-4.598 4.574-7.663l-3.315-24.832c-.493-3.727-4.29-6.002-8.472-5.086-4.19.915-7.17 4.679-6.674 8.404l3.315 24.833c.494 3.726 4.291 6.001 8.472 5.085a9.102 9.102 0 002.1-.74" fill="#E78990"/><path d="M164.252 278.395a.71.71 0 00.716.748h1.423a.814.814 0 00.812-.741l8.662-94.821h-7.224l-4.389 94.814z" fill="#8A95A7"/><path d="M23.676 220.333l3.474-3.495h48.1l-3.473 3.495c-.293.293-.63.437-.965.437h-48.1c.334 0 .672-.144.964-.437" fill="#060F25"/><path d="M26.296 216.838h48.1c2.698-2.708 4.438-6.933 4.773-11.586.457-6.311-.028-14.595-1.44-24.622-1.811-12.862-3.67-20.298-6.217-24.858-2.636-4.725-5.85-6.177-10.179-6.994a1.21 1.21 0 00-.22-.02h-48.1c.072 0 .145.006.22.02 4.328.817 7.542 2.27 10.178 6.994 2.548 4.56 4.406 11.996 6.217 24.858 1.413 10.027 1.897 18.31 1.44 24.622-.335 4.653-2.075 8.878-4.772 11.586" fill="#374A69"/><path d="M13.867 148.757c-.824 0-1.54.859-1.651 2.042-.12 1.288.518 2.47 1.43 2.643 3.68.692 6.046 1.732 8.006 5.24 2.17 3.888 3.885 10.941 5.566 22.866 1.676 11.917 1.684 19.208 1.393 23.226-.24 3.306-1.475 6.309-3.392 8.234l-3.474 3.495c-.749.75-.924 2.218-.39 3.276.325.645.838.99 1.356.99.336 0 .673-.143.965-.436l3.474-3.495c2.697-2.709 4.438-6.933 4.773-11.586.457-6.311-.028-14.594-1.44-24.622-1.812-12.862-3.67-20.298-6.217-24.858-2.637-4.724-5.851-6.177-10.18-6.995a1.193 1.193 0 00-.22-.02" fill="#060F25"/><path d="M63.944 278.083c.661 0 1.253-.485 1.386-1.187l10.15-53.56c.378-1.993 1.544-3.448 2.838-3.54l35.562-2.542c.71-.049 1.278.32 1.631.64.89.807 1.48 2.229 1.579 3.801l3.456 55.013c.05.81.73 1.428 1.503 1.37.78-.052 1.372-.751 1.32-1.56l-3.455-55.015c-.15-2.37-1.075-4.49-2.54-5.822-1.07-.97-2.376-1.453-3.688-1.36l-35.562 2.542c-2.608.188-4.786 2.56-5.42 5.905l-10.15 53.561c-.151.796.348 1.569 1.115 1.726.092.018.184.028.275.028" fill="#8A95A7"/><path d="M18.474 278.083c.661 0 1.253-.485 1.386-1.187l10.15-53.56c.378-1.993 1.544-3.448 2.838-3.54l35.562-2.542c.715-.049 1.278.32 1.631.64.89.807 1.48 2.229 1.579 3.801l3.456 55.013c.05.81.727 1.428 1.503 1.37.78-.052 1.371-.751 1.32-1.56l-3.455-55.015c-.15-2.37-1.075-4.49-2.54-5.822-1.07-.97-2.377-1.452-3.688-1.36l-35.562 2.542c-2.608.188-4.785 2.56-5.42 5.905l-10.15 53.561c-.151.796.348 1.569 1.115 1.726.092.018.184.028.275.028" fill="#8A95A7"/><path d="M68.527 210.488a5.4 5.4 0 00-.421.015l-35.654 2.542c-1.666.119-3.249.937-4.58 2.359-.73.786-.875 2.262-.32 3.296.328.61.825.93 1.328.93.35 0 .704-.156 1.005-.478.794-.85 1.74-1.338 2.734-1.41l35.656-2.541a3.44 3.44 0 01.256-.01c1.985 0 3.788 1.69 4.55 4.279.265.907.885 1.452 1.537 1.452.214 0 .429-.058.637-.18.85-.496 1.253-1.873.9-3.07-1.275-4.354-4.314-7.184-7.628-7.184" fill="#374A69"/><path d="M73.764 220.922H121c.214 0 .43-.057.637-.18.85-.496 1.252-1.872.901-3.07-1.277-4.354-4.315-7.184-7.63-7.184H67.674c3.314 0 6.353 2.83 7.629 7.184.352 1.198-.05 2.574-.901 3.07-.208.123-.424.18-.637.18" fill="#374A69"/><path fill="#5C3E56" d="M142.217 268.76l-10.38 1.894-2.313-12.648 10.38-1.893z"/><path d="M130.1 268.692a.75.75 0 01.972-.41 6.36 6.36 0 011.208.665c1.285.873 1.693.775 3.902.372 1.847-.337 2.114-4.361 4.126-6.038a2.91 2.91 0 011.838-.672c6.493-.052 11.732 2.603 14.863 6.258.538.628.655 1.473.307 2.23-.347.76-1.109 1.32-2.01 1.484l-21.294 3.884c-1.193.218-2.41-.037-3.325-.696-.914-.66-1.438-1.658-1.422-2.724.021-1.394.243-2.915.836-4.353" fill="#836328"/><path d="M115.89 200.46c15.04-1.95 20.651 15.934 20.651 15.934l10.302 44.872c-7 .223-22.104 5.644-22.104 5.644s-4.587-45.261-5.655-48.989c0 0-47.025-16.82-44.494-20.872 2.53-4.051 32.969 4.491 41.3 3.41" fill="#A0824D"/><mask id="d" fill="#fff"><use xlink:href="#c"/></mask><path fill="#5C3E56" mask="url(#d)" d="M118.351 273.892h10.552v-12.857H118.35z"/><path d="M116.995 271.652a.75.75 0 011.029-.23 6.31 6.31 0 011.07.871c1.106 1.09 1.525 1.066 3.771 1.066 1.877 0 2.863-3.91 5.145-5.2a2.901 2.901 0 011.928-.33c6.398 1.115 11.073 4.666 13.497 8.822a2.054 2.054 0 01-.1 2.25c-.478.684-1.329 1.1-2.244 1.1h-21.646c-1.214 0-2.365-.47-3.146-1.283-.78-.813-1.117-1.888-.909-2.934.272-1.368.764-2.824 1.605-4.132" fill="#7A5820" mask="url(#d)"/><path d="M288.043 128.76s-13.023-2.988-26.677-.978-3.012 18.076-3.012 18.076 39.915-10.787 29.689-17.099" fill="#D0754F" mask="url(#d)"/><path d="M327.576 221.377l-3.464-3.483h-47.95l3.463 3.483c.291.293.627.436.961.436h47.951c-.334 0-.67-.143-.961-.436" fill="#060F25" mask="url(#d)"/><path d="M324.112 217.894h-47.951c-2.688-2.7-4.424-6.912-4.757-11.55-.455-6.293.027-14.55 1.436-24.546 1.805-12.821 3.657-20.235 6.196-24.78 2.63-4.71 5.834-6.159 10.148-6.973.074-.014.147-.02.22-.02h47.95a1.2 1.2 0 00-.219.02c-4.315.814-7.518 2.263-10.147 6.972-2.54 4.546-4.391 11.96-6.198 24.78-1.407 9.997-1.89 18.254-1.435 24.546.334 4.64 2.069 8.85 4.757 11.551" fill="#374A69" mask="url(#d)"/><path d="M337.355 150.025c.82 0 1.534.855 1.646 2.035.118 1.284-.518 2.463-1.427 2.634-3.668.69-6.027 1.727-7.98 5.224-2.163 3.877-3.874 10.907-5.549 22.795-1.671 11.88-1.678 19.147-1.389 23.154.24 3.294 1.47 6.288 3.381 8.208l3.464 3.484c.747.748.92 2.212.388 3.267-.323.644-.834.987-1.352.987-.334 0-.67-.143-.961-.436l-3.464-3.483c-2.689-2.701-4.423-6.912-4.757-11.55-.456-6.292.028-14.549 1.435-24.546 1.806-12.822 3.658-20.235 6.197-24.78 2.63-4.71 5.833-6.158 10.148-6.973a1.2 1.2 0 01.22-.02" fill="#060F25" mask="url(#d)"/><path d="M287.433 278.948c-.66 0-1.249-.484-1.381-1.183l-10.12-53.393c-.376-1.986-1.539-3.438-2.828-3.53l-35.452-2.534c-.707-.049-1.275.32-1.626.638-.887.806-1.476 2.223-1.574 3.79l-3.445 54.842c-.05.808-.727 1.423-1.499 1.366-.777-.053-1.366-.75-1.315-1.557l3.445-54.842c.148-2.362 1.07-4.478 2.531-5.805 1.066-.967 2.37-1.449 3.677-1.355l35.452 2.534c2.599.186 4.77 2.552 5.402 5.886l10.119 53.395c.15.793-.348 1.564-1.112 1.72a1.393 1.393 0 01-.274.028" fill="#8A95A7" mask="url(#d)"/><path d="M332.762 278.948c-.66 0-1.25-.484-1.382-1.183l-10.12-53.393c-.375-1.986-1.54-3.438-2.827-3.53l-35.452-2.534c-.712-.049-1.275.32-1.626.638-.887.806-1.476 2.223-1.575 3.79l-3.444 54.842c-.05.808-.725 1.423-1.5 1.366-.776-.053-1.365-.75-1.315-1.557l3.445-54.842c.148-2.362 1.071-4.478 2.532-5.805 1.065-.967 2.37-1.448 3.677-1.355l35.451 2.534c2.6.186 4.77 2.55 5.402 5.886l10.12 53.395c.15.793-.348 1.564-1.112 1.72a1.393 1.393 0 01-.274.028" fill="#8A95A7" mask="url(#d)"/><path d="M276.792 221.965h-47.09c-.212 0-.427-.058-.634-.179-.847-.496-1.249-1.867-.899-3.062 1.273-4.34 4.302-7.161 7.606-7.161h47.09c-3.305 0-6.334 2.822-7.605 7.161-.351 1.195.05 2.566.898 3.062.207.121.422.18.634.18" fill="#374A69" mask="url(#d)"/><path d="M282.865 211.563c.14 0 .279.005.42.015l35.542 2.534c1.66.119 3.24.934 4.565 2.352.73.783.874 2.255.319 3.286-.326.608-.821.927-1.322.927-.35 0-.703-.155-1.003-.476-.792-.85-1.734-1.334-2.726-1.406l-35.544-2.534a3.421 3.421 0 00-.257-.01c-1.978 0-3.775 1.685-4.534 4.266-.265.905-.883 1.448-1.533 1.448-.212 0-.427-.058-.634-.179-.849-.496-1.25-1.866-.898-3.062 1.271-4.34 4.3-7.161 7.605-7.161" fill="#060F25" mask="url(#d)"/><path d="M216.387 114.206s-2.017-27.068 10.323-42.68l4.034-3.385-1.1 7.01s-8.216 24.515-5.192 36.661c3.023 12.146-8.065 2.394-8.065 2.394" fill="#D0754F" mask="url(#d)"/><path d="M228.122 71.978s-2.8-4.036-3.239-5.853c-.438-1.816 2.55-5.737 3.813-6.311 1.264-.574 7.412 1.549 7.412 1.549s1.436 1.451.23 4.484c0 0 1.895-1.902 1.895-.295 0 1.606-1.264 4.417-4.596 5.451-3.332 1.032-5.515.975-5.515.975m103.618 40.323s2.017-27.067-10.323-42.68l-4.033-3.385 1.1 7.011s8.215 24.515 5.192 36.66c-3.023 12.147 8.064 2.394 8.064 2.394m-113.586 114.87c1.511-11.282 1.632-18.919-2.521-19.472-4.157-.553-3.335-5.193-4.846 6.09-1.2 8.972-6.346 36.542-8.805 47.169-1.145 4.951-5.35 7.712-6.552 8.706-2.964 2.448-5.102 3.172-5.528 3.814-.196.298-.207 2.396.228 2.73 2.342 1.807 5.672-2.389 10.372-5.369 3.231-2.048 4.61-4.403 5.398-5.287.163-.184-.755-1.329.033-3.427 3.78-10.082 10.986-25.745 12.221-34.954" fill="#D0754F" mask="url(#d)"/><path d="M206.098 264.192s-10.884 11.276-14.693 8.442c-.608-.452-3.999 2.324-3.999 2.324s-2.305 1.582-.494 2.577c.98.536 4.89 1.056 8.888.051 2.269-.571 5.2-5.827 6.678-6.882.446-.318.357 4.41.76 6.188h1.17c.15-.3.319-.687.507-1.193.322-.859 1.838-5.155 2.54-6.966.644-1.66-1.357-4.541-1.357-4.541m-7.844-2.522l12.555 2.522s10.572-26.279 11.894-39.807l1.321-13.528 54.188.894-19.321-25.983-47.09 14.861s-3.81 1.75-4.218 5.659c-.408 3.91-9.329 55.382-9.329 55.382" fill="#060F25" mask="url(#d)"/><path d="M196.347 211.158c6.56-9.31 10.201-16.026 6.773-18.432-3.43-2.409-.554-6.144-7.114 3.165-5.216 7.404-22.536 29.478-29.632 37.768-3.307 3.864-8.312 4.371-9.84 4.698-3.76.802-5.993.458-6.666.83-.312.174-1.292 2.03-1.061 2.528 1.24 2.684 6.135.498 11.682.025 3.813-.326 6.126-1.777 7.233-2.199.23-.087-.055-1.526 1.615-3.024 8.016-7.197 21.655-17.76 27.01-25.359" fill="#D0754F" mask="url(#d)"/><path d="M168.527 238.426s-14.87 4.979-16.936.708c-.33-.682-4.622.215-4.622.215s-2.776.34-1.63 2.057c.622.929 3.848 3.194 7.86 4.147 2.275.54 7.305-2.767 9.104-3.021.543-.077-1.723 4.076-2.187 5.838l1.036.54a12.16 12.16 0 001.002-.823c.684-.615 4.016-3.725 5.476-5.007 1.338-1.176.897-4.654.897-4.654" fill="#060F25" mask="url(#d)"/><path d="M163.57 229.29s34.05-39.653 36.405-42.803c2.354-3.15 6.524-2.704 6.524-2.704l48.306 1.83 5.432-13.423 24.543-.886s6.27 1.876 10.17 19.754c3.9 17.877-3.438 20.531-3.438 20.531l-23.902.149-3.544-.22-2.072.219-50.238-12.918-8.07 10.944c-8.071 10.945-30.623 28.114-30.623 28.114l-3.886-3.516" fill="#142A4E" mask="url(#d)"/><path d="M291.08 127.944l29.764-17.223s1.092-8.574-1.214-10.636c-2.306-2.061 14.204-3.88 14.204-3.88l2.186 11.073s-.85 9.296-3.035 10.994c-2.186 1.697-41.904 25.462-41.904 25.462v-15.79zm-32.189 1.826l-30.875-17.47s-2.227-.705-2.174-3.548c.052-2.842 3.179-8.79 3.99-8.79.81 0-15.094-3.152-16.309 0-1.213 3.153.728 13.553.728 13.553s1.62 5.24 3.42 6.454c1.802 1.212 36.28 16.61 40.529 23.279 4.25 6.668.691-13.48.691-13.48" fill="#C0ECEA" mask="url(#d)"/><path d="M320.006 70.074s2.8-4.036 3.239-5.853c.438-1.817-2.55-5.737-3.813-6.311-1.264-.574-7.412 1.549-7.412 1.549s-1.436 1.45-.23 4.483c0 0-1.895-1.901-1.895-.295 0 1.607 1.264 4.418 4.596 5.452 3.332 1.032 5.515.975 5.515.975m-44.53 65.418a5.369 5.369 0 01-5.058-5.007l-1.295-19.734a5.367 5.367 0 015.011-5.706 5.348 5.348 0 015.712 5.003l1.295 19.734a5.37 5.37 0 01-5.665 5.71" fill="#D0754F" mask="url(#d)"/><path d="M280.435 119.019l-.588-8.97a5.35 5.35 0 00-5.713-5.005 5.368 5.368 0 00-5.01 5.707l.934 14.245c1.798-.422 3.44-1.956 5.537-3.227 1.568-.95 3.295-1.692 4.84-2.75" fill="#A85A3F" mask="url(#d)"/><path d="M293.184 94.048c-.123-9.767-9-17.574-19.826-17.439-1.61.021-3.218.227-4.773.61-4.737 1.166-8.924 3.971-11.574 7.73-1.353 1.921-2.183 3.998-2.717 6.215-.67 2.79-.46 5.58-.424 8.453.034 2.635-.178 5.385.144 8.006.563 4.577 4.381 7.752 7.351 11.688 5.556 7.361 10.731 1.527 15.466-.61 4.64-2.095 8.905-5.618 11.68-9.525 3.084-4.344 4.648-9.505 4.675-14.643 0-.162 0-.323-.002-.485" fill="#D0754F" mask="url(#d)"/><path d="M293.184 94.048c-.123-9.767-9-17.574-19.826-17.438-.77.01-5.146 10.126-6.662 21.19-1.65 12.049-.378 25.129.63 25.119 3.335-.032 6.509-2.866 9.505-4.219 4.64-2.094 8.905-5.616 11.68-9.524 3.084-4.343 4.648-9.505 4.675-14.643 0-.162 0-.323-.002-.485" fill="#A85A3F" mask="url(#d)"/><path d="M270.328 112.14l-7.682.097a1.43 1.43 0 00-.641.143c-.163.087-.24.203-.21.317.281 1.089 2.284 1.901 4.665 1.872l.113-.002c2.381-.03 4.362-.893 4.617-1.988.027-.114-.052-.227-.216-.31a1.434 1.434 0 00-.646-.129" fill="#D63E39" mask="url(#d)"/><path d="M291.157 102.482l-.002-.008-.185-.655c-.11-.397-.249-.931-.422-1.477a7.169 7.169 0 00-.306-.804 3.118 3.118 0 00-.204-.369 1.66 1.66 0 00-.253-.311 1.163 1.163 0 00-.29-.207c-.098-.05-.214-.074-.29-.092l-.099-.005v-.016h-7.756v2.206h.77c1.047 0 2.238-1.566 3.573-1.566H289l.148.027c.026.022.043.027.08.052.04.03.082.063.124.119.178.206.332.702.434 1.218.106.52.188 1.067.257 1.477l.117.69c.003.02.008.044.014.065.085.303.375.47.646.376.272-.095.423-.417.338-.72" fill="#E1C8F1" mask="url(#d)"/><path d="M284.305 114.489c1.768.256 2.99.64 3.81 1.109.834.462 1.247 1.005 1.405 1.566.959-3.028 1.035-6.557.32-10.028l-.005-.02c-.072.127-.14.257-.214.383a25.136 25.136 0 01-1.254 1.914c-.335.46-.695.914-1.072 1.362-.2.24-.42.47-.63.705a29.336 29.336 0 01-3.05 2.924c.232.027.474.053.69.085" fill="#442409" mask="url(#d)"/><path d="M254.34 110.885c-2.067-6.269-5.757-12.65-1.871-22.057 4.057-9.81 12.495-13.963 21.12-13.963 16.031 0 26.392 12.513 26.392 27.473 0 14.96-13.1 18.518-13.1 18.518 0-.008.01-.008.01-.017 2.588-3.549 4.08-8.709 3.045-13.724-1.084-5.315-3.962-10.466-8.113-13.374-4.492-3.148-6.67-6.551-7.61-8.436.334-.674.479-1.322.393-1.91-.41-2.866-4.645-4.342-12.469-.24-3.715 1.946-6.423 4.64-7.67 7.848-.785 1.987-1.008 4.171-.564 6.5l.035-.035v.213c0 .572.009 1.143.009 1.714 0 2.636-.174 5.15.116 7.777.12 1.075.593 2.42.935 3.46 0 0 2.246 3.695 4.597 6.352 0 0-4.158 1.75-2.837 4.576.145.217-3.303-3.764-4.403-10.718-.881-5.561-2.391-11.058-1.259-13.758 1.133-2.702 3.244 13.801 3.244 13.801" fill="#442409" mask="url(#d)"/><path d="M279.49 103.083c-.275 1.247-1.108 2.11-2.075 2.144l-5.144.19h-.095c-1.724 0-3.177-1.713-3.381-3.984-.102-1.126.082-1.909.576-2.468.78-.88 2.404-1.314 5.266-1.407.167-.005.33-.008.488-.008 3.576 0 4.63 1.348 4.689 2.145.051.688-.007 1.94-.325 3.388m-19.942 2.334l-5.24-.19c-.966-.035-1.8-.897-2.074-2.144-.318-1.448-.377-2.7-.324-3.388.058-.797 1.113-2.145 4.689-2.145.158 0 .32.003.487.008 2.86.093 4.485.527 5.265 1.407.496.558.679 1.342.577 2.468-.204 2.271-1.657 3.984-3.38 3.984m14.255-8.522c-5.223.455-6.883 2.025-7.941 2.025-1.058 0-2.718-1.57-7.94-2.025-5.223-.455-7.54 1.626-7.54 1.626v2.23s.499.387.968 1.093c.055.433.131.895.238 1.38.34 1.547 1.423 2.617 2.695 2.664l5.144.188.12.002c1.698 0 3.16-1.34 3.762-3.264.19-.364.387-.774.518-1.138.321-.893 1.29-.978 1.765-.962.179.006.362.006.54 0 .475-.016 1.444.069 1.766.962.13.365.328.776.517 1.14.603 1.923 2.064 3.262 3.762 3.262l5.264-.19c1.272-.047 2.355-1.117 2.695-2.663.106-.486.182-.948.239-1.38a4.945 4.945 0 01.967-1.093V98.52s-2.317-2.081-7.539-1.626" fill="#E1C8F1" mask="url(#d)"/><path d="M276.344 82.18c-.446-3.118-5.054-4.723-13.562-.26-4.041 2.115-6.986 5.046-8.342 8.535-.855 2.161-1.186 4.536-.702 7.068l.036-.036v-.01c.772-1.122 3.648-4.11 7.465-4.304 5.156-.26 12.764-5 14.678-8.915.362-.734.52-1.439.427-2.079" fill="#442409" mask="url(#d)"/><path d="M251.792 150.382c1.156-14.607 5.411-22.134 5.411-22.134l10.952-1.196.742 13.507 12.605-13.887 12.034.894s-1.607-.36-.45 14.248c.05.638-6.411 22.105-8.306 29.49l-24.543.885c-2.073-7.33-8.445-21.807-8.445-21.807" fill="#C0ECEA" mask="url(#d)"/><path d="M72.636 182.41h-32.31s-9.975 19.46.603 33.862c0 0 29.016-1.849 30.118-2.088 1.985-.43 7.767 1.124 10.18 1.521 6.903 1.133 27.241 1.279 26.41 1.505 0 0 6.827-1.34 7.206 2.52.38 3.858-3.25 49.207-3.25 49.207s15.834-2.623 22.76-1.586l-2.063-45.99s-2.324-18.26-17.447-19.381c-15.123-1.12-37.278-5.233-37.932-7.294-.653-2.062-4.275-12.275-4.275-12.275" fill="#AF9361" mask="url(#d)"/><path d="M71.794 128.962a4.811 4.811 0 00-.165-3.716 4.827 4.827 0 00-2.748-2.514c-.304-.11-7.248-2.546-16.082-1.703.004.017.01.03.02.05 1.019 2.267 1.629 5.49.853 8.464-3.036-2.676-6.756-4.403-15.028-7v-.002c-.714.175-1.411.358-2.07.563-9.333 1.268-15.88 5.735-16.154 5.926a4.832 4.832 0 00-2.015 3.132 4.822 4.822 0 00.795 3.637c.34.49.757.901 1.228 1.227a11.007 11.007 0 014.423 6.41c.976 3.957 2.948 8.345 5.901 13.123.783 1.27 1.599 2.732 2.463 4.28 1.054 1.89 4.907 14.642 2.862 28.566-1.224 8.333.68 14.835.68 14.835s6.072 2.157 18.3-.535c6.046-1.331 14.839-4.185 14.822-8.836 6.435 5.967 10.284 1.42 10.284 1.42-.218-7.217-5.672-47.532-9.942-59.144-.897-2.441-.047-5.184 1.235-7.447.131-.234.244-.479.338-.736" fill="#060F25" mask="url(#d)"/><path d="M46.793 127.98a1.418 1.418 0 011.295-.771c.175.005.352.042.52.118l5.06 2.215 3.701-3.502c.139-.137.308-.233.483-.293a1.398 1.398 0 011.394.253c1.072.93 2.032 1.85 2.935 2.889.548.63 1.075 1.3 1.583 2.047.052.075.101.164.154.24a20.4 20.4 0 00-1.282-1.317c-.857-.797-1.795-1.547-3-2.396l-4.376 3.372a2.6 2.6 0 01-1.262.51c-.043.007-.087-.002-.131 0-.071.015-.14.037-.213.046a3.09 3.09 0 01-1.28-.094l-6.284-1.863c-.257.35-.503.66-.74.951a18.56 18.56 0 001.444-2.406" fill="#D9CED6" mask="url(#d)"/><path d="M36.305 122.607a.29.29 0 01.2-.172 3.742 3.742 0 012.009.066c8.362 2.621 12.106 4.354 15.154 7.04l-5.059-2.214a1.357 1.357 0 00-.521-.118 1.415 1.415 0 00-1.294.77 18.8 18.8 0 01-1.445 2.406c-1.292 1.82-2.812 3.134-4.88 4.53a45.49 45.49 0 01-2.04 1.31c.252-1.28.568-2.726.6-4.374.06-2.462-.483-5.393-2.702-8.982a.291.291 0 01-.022-.262M59.246 126a1.394 1.394 0 00-1.395-.252 1.256 1.256 0 00-.482.292l-3.7 3.501c.78-2.972.168-6.193-.854-8.465a.8.8 0 01.056-.757.778.778 0 01.663-.357c.2-.263 6.057 3.46 9.131 8.079 1.825 2.719 2.255 4.75 2.255 4.75-.083-.147-.166-.283-.246-.42a24.177 24.177 0 00-.91-1.435 21.623 21.623 0 00-1.583-2.047c-.903-1.038-1.863-1.957-2.935-2.89" fill="#F3F0F3" mask="url(#d)"/><path d="M15.616 95.544c-3.029-10.033 3.71-20.934 15.05-24.35a23.487 23.487 0 015.177-.944c5.32-.362 10.595 1.134 14.575 4.11 2.035 1.52 3.571 3.371 4.845 5.464 1.602 2.636 2.284 5.558 3.175 8.509.817 2.707 1.925 5.452 2.438 8.238.892 4.866-.414 10.288-3.893 14.369-3.927 4.61-10.701 5.087-16.334 4.454-5.518-.62-11.108-2.824-15.266-5.909-4.622-3.43-7.922-8.197-9.611-13.446-.055-.165-.106-.33-.156-.495" fill="#C35566" mask="url(#d)"/><path d="M15.616 95.544c-3.029-10.033 3.71-20.934 15.05-24.35.775-.233 8.867 8.151 13.79 17.976 5.791 11.562 8.408 24.898 7.341 25.292-3.49 1.288-7.551 1.336-11.148.932-5.518-.62-11.108-2.824-15.266-5.909-4.622-3.43-7.922-8.197-9.611-13.446-.055-.165-.106-.33-.156-.495" fill="#B24B5F" mask="url(#d)"/><path d="M44.46 106.694a.291.291 0 01.123-.294c1.57-1.06 3.5-2.709 4.113-4.533a.291.291 0 01.208-.189.295.295 0 01.271.072c1.426 1.364 3.384 1.684 4.897 1.723a.29.29 0 01.215.477c-.81.97-1.87 2.25-3.86 2.85-2.276.685-4.433.426-5.746.124a.29.29 0 01-.222-.23m-14.912-1.653c-.154 2.619.27 5.09 1.178 7.3 3.208 7.845 12.458 12.453 23.252 9.203 14.17-4.268 6.517-26.685 6.517-26.685s1.203 5.72-1.451 6.522c-1.006.304-1.578-.47-2.344-.958-.802-.512-1.404-.619-2.35-.559-1.367.084-1.57-.8-2.528-1.522-1.269-.957-2.744-.149-3.463 1.033a.293.293 0 01-.41.09c-.697-.46-1.897-.43-2.592.01-.733.46-1 1.301-1.327 2.074-.444 1.045-.96 1.517-1.914 2.08-1.129.667-1.597 1.627-2.065 2.796-.604 1.51-2.128 1.986-3.674 1.992-1.548.006-3.141-.5-4.354-1.473a9.995 9.995 0 01-1.947-2.054.291.291 0 00-.528.15" fill="#521B3B" mask="url(#d)"/><path d="M13.692 81.66a2.53 2.53 0 001.486-1.14c2.736-4.6 9.33-13.131 22.138-16.989 17.99-5.417 18.226 16.783 18.226 16.783s-5.266-6.655-7.997-5.832c-2.731.823-2.027 8.851-9.01 10.954-4.081 1.229-7.86.692-10.294.03a.287.287 0 00-.235.038.286.286 0 00-.13.199c-.47 2.992-1.347 8.616-1.62 9.702-.39 1.49.426 2.216-5.424 1.305-5.85-.912.124 11.491 9.198 15.573-5.48-.657-13.908-6.385-18.282-17.443-4.044-10.239-.025-12.625 1.944-13.18" fill="#521B3B" mask="url(#d)"/><path d="M37.653 209.67c-2.115-2.968-4.056-6.796-4.078-8.374-.014-1.089 1.698-1.847 1.895-2.905 2.24.846 7.562 5.178 9.317 6.878l3.268 3.333 2.527 5.271-.644 2.66-6.781 1.355-4.445.257-.13-1.402-.93-7.073z" fill="#B24B5F" mask="url(#d)"/><path d="M20.42 129.03s-2.937 2.15-4.431 5.937c-1.494 3.787-14.228 30.754-14.228 30.754s-2.548 6.311-1.514 9.64c0 0 33.317 28.643 33.68 33.163.364 4.52 7.375-15.033 7.375-15.033s-28.07-22.147-30.254-22.147c-2.183 0 17.62-22.586 17.62-22.586L20.42 129.03z" fill="#060F25" mask="url(#d)"/><path d="M132.342 173.972c-3.643.185-7.92-.236-9.263-1.066-.927-.572-.647-2.422-1.435-3.157 1.918-1.432 8.436-3.586 10.815-4.15l4.57-.963 5.809.705 1.9 1.971-2.5 6.44-2.17 3.882-1.254-.645-6.472-3.017z" fill="#B24B5F" mask="url(#d)"/><path d="M70.508 123.714l17.64 35.122s2.18 5.726 3.733 5.444c1.553-.28 36.943.896 36.943.896s-2.124 7.337-2.727 11.572c-.605 4.235 0 0 0 0s-40.513-2.125-42.798-1.896c-2.584.258-4.688-3.388-4.688-3.388s-4.241-20.965-8.038-22.707c-3.797-1.741-.065-25.043-.065-25.043" fill="#060F25" mask="url(#d)"/><path d="M414.03 53.311l-8.961 41.715-29.413-20.858-10.428 15.85 39.76 17.62s6.143 2.028 7.943-5.819c1.799-7.846 9.972-26.188 9.972-26.188l-8.873-22.32z" fill="#FFF" mask="url(#d)"/><path d="M413.55 53.812s3.052 11.523 2.847 17.019c-.204 5.494-1.666 23.398 0 31.197 1.667 7.8 2.573 16.652 2.573 16.652l41.25 2.94s.007-44.222 3.419-51.405c0 0 4.27-14.91 9.403-15.216 5.133-.305-12.91-6.264-20.316-5.767l-2.563-1.437-14.629 8.256-1.388-6.733s-8.243-1.03-20.596 4.494" fill="#8A95A7" mask="url(#d)"/><path d="M422.206 269.168a5.174 5.174 0 005.07 4.16 5.21 5.21 0 001.016-.095 5.16 5.16 0 004.061-6.07c-.423-2.11-.16-5.432-.557-7.49h-10.518c.5 2.712.376 6.697.928 9.495" fill="#C0ECEA" mask="url(#d)"/><path d="M433.002 267.934a.353.353 0 00-.332-.215.353.353 0 00-.325.225c-.218.56-.742 1.127-1.975 1.127-2.422 0-1.584-5.082-9.153-5.09-4.155 1.459-8.975 2.519-11.532 6.466-.43.662-1.565 2.09-.358 4.039 1.207 1.948 4.106 1.343 4.814 1.343h16.724c.938 0 1.827-.475 2.43-1.294.604-.82.863-1.905.702-2.962-.18-1.198-.492-2.463-.995-3.64" fill="#060F25" mask="url(#d)"/><path d="M450.943 269.168c.482 2.464 2.646 4.16 5.07 4.16a5.13 5.13 0 001.008-.095 5.171 5.171 0 004.07-6.07c-.424-2.11-.82-2.902-.499-8.254h-10.518c-.218 6.006.317 7.461.869 10.26" fill="#C0ECEA" mask="url(#d)"/><path d="M418.97 118.68s-1.644 5.282-.035 22.262l-1.803 47.263 2.277 74.475 14.196-.155 8.31-122.96-22.945-20.885z" fill="#060F25" mask="url(#d)"/><path d="M418.97 118.68s35.087 1.456 41.126-2.666c0 0 5.273 15.483 4.38 27.114-.893 11.63-4.254 42.292-3.175 49.385 1.08 7.094 1.476 69.922 1.476 69.922l-14.342-.628s-6.839-56.712-7.66-65.106c-.822-8.397-.887-52.328-.887-52.328L419.51 122.67l-.539-3.99z" fill="#060F25" mask="url(#d)"/><path stroke="#E9E6EC" mask="url(#d)" d="M433.193 125.188h5.956v-4.59h-5.956z"/><path d="M461.944 267.934a.353.353 0 00-.332-.215.353.353 0 00-.325.225c-.219.56-.743 1.127-1.975 1.127-2.422 0-1.584-5.082-9.153-5.09-4.155 1.459-8.975 2.519-11.533 6.466-.429.662-1.564 2.09-.357 4.039 1.207 1.948 4.106 1.343 4.814 1.343h16.724c.938 0 1.827-.475 2.43-1.294.604-.82.863-1.905.702-2.962-.181-1.198-.492-2.463-.995-3.64" fill="#060F25" mask="url(#d)"/><path d="M453.76 46.524a.309.309 0 00-.014-.288.324.324 0 00-.246-.159 4.256 4.256 0 00-2.222.357c-8.907 4.026-13.734 7.356-16.73 10.704l6.216-3.12c.178-.106.369-1.09.564-1.12a1.598 1.598 0 011.548.654 20.5 20.5 0 001.951 2.409c1.7 1.795 3.579 3.006 6.076 4.232.751.37 1.574.752 2.456 1.134-.467-1.355-1.024-2.88-1.298-4.667-.424-2.665-.246-5.925 1.7-10.136" fill="#FFF" mask="url(#d)"/><path d="M428.759 54.078c.197-.216.441-.364.702-.443.261-.079.54-.09.81-.03.203.041.405.12.578.251l4.617 3.281c0-3.82-1.083-6.703-.276-9.316a.858.858 0 00-.173-.814.878.878 0 00-.788-.294c-.26-.258-6.225 4.613-8.972 10.064-1.634 3.21-1.817 5.477-1.817 5.477.072-.17.143-.33.213-.49a26.72 26.72 0 01.802-1.686c.457-.883.944-1.686 1.462-2.449.853-1.255 1.787-2.387 2.842-3.551" fill="#FFF" mask="url(#d)"/><path d="M352.914 49.285a.262.262 0 01.024-.021c.017-.016.034-.029.052-.043l.057-.034a.472.472 0 01.061-.032l.042-.016.007-.003c.005-.002.01-.005.016-.006a.787.787 0 01.245-.044l.048-.001h21.344l.065.001c.047.003.093.008.14.016.017.003.032.01.048.012.033.007.066.017.1.026.032.009.065.013.099.025.023.008.046.022.07.03.045.017.09.037.136.06.026.011.053.02.08.033.026.015.054.034.08.05.039.021.077.043.114.068.022.014.044.025.065.039.05.034.1.071.15.11l.017.013.017.014a3.099 3.099 0 01.185.162l.074.071.007.008.01.009a2.55 2.55 0 01.16.175l.072.088.004.006.003.004.062.08.065.094a2.148 2.148 0 01.124.196 3.275 3.275 0 01.122.234l.017.038 16.535 37.292.042.1a2.7 2.7 0 01.06.171c.011.036.013.068.021.104a1.552 1.552 0 01.054.393c.001.046.002.09-.001.134a.978.978 0 01-.045.215c-.01.032-.016.068-.029.098a.73.73 0 01-.162.24l-1.05 1a.723.723 0 00.16-.241c.014-.03.019-.064.03-.096.02-.068.038-.138.045-.215a.999.999 0 000-.134 1.684 1.684 0 00-.052-.394 2.239 2.239 0 00-.124-.376l-16.536-37.29a2.687 2.687 0 00-.17-.326l-.009-.016a3.134 3.134 0 00-.211-.303l-.002-.001a3.405 3.405 0 00-.246-.28l-.008-.007a3.228 3.228 0 00-.259-.233l-.016-.014a3.129 3.129 0 00-.345-.23 2.241 2.241 0 00-.298-.143 1.63 1.63 0 00-.268-.08 1.29 1.29 0 00-.252-.03h-21.345a.9.9 0 00-.309.05c-.003.003-.005.003-.007.004a.706.706 0 00-.236.146l1.051-1z" fill="#535C68" mask="url(#d)"/><path d="M352.415 50.084c-.745 0-1.016.749-.612 1.664l16.535 37.29c.406.915 1.338 1.657 2.082 1.657h21.346c.745 0 1.018-.742.614-1.657l-16.535-37.29c-.406-.915-1.341-1.664-2.086-1.664h-21.344z" fill="#8A95A7" mask="url(#d)"/><path d="M370.608 72.155a1.73 1.73 0 011.787 1.669 1.71 1.71 0 01-.53 1.3.44.44 0 00.022.654 1.717 1.717 0 01.086 2.56.439.439 0 00.021.654 1.721 1.721 0 01-.165 2.764.438.438 0 00-.116.626c.196.266.316.591.329.945a1.73 1.73 0 01-1.672 1.787l-1.3.043a1.29 1.29 0 00-1.062.625c-1.262 2.098-2.962 3.391-4.602 3.235-2.664-.254-4.153-4.22-3.323-8.86 1.602-8.966 1.659-7.705 10.525-8.002m52.664 12.515c-2.255 2.785-6.838 2.733-10.236-.118-2.026-1.701-8.191-5.103-1.05-11.45.272-.243.438-.584.456-.939a1.21 1.21 0 00-.358-.938l-5.603-5.459c-.54-.526-.527-1.412.028-1.98.557-.57 1.443-.604 1.982-.078l2.473 2.409a51.432 51.432 0 007.188 5.832c.972.651 1.946 1.587 3.048 2.511 3.396 2.852 4.326 7.423 2.072 10.21" fill="#8C6B51" mask="url(#d)"/><path d="M471.487 53.4s-8.71 1.361-9.584 13.381c-.874 12.019-6.367 30.335-6.367 30.335s-25.316-20.573-28.208-19.453c-2.891 1.118-9.779 11.627-8.097 14.199 1.683 2.57 35.687 19.242 35.687 19.242s8.937.902 8.313-2.764c-.626-3.667 13.643-35.664 13.643-35.664s4.389-17.657-5.387-19.276" fill="#FFF" mask="url(#d)"/><path d="M437.519 35.907l-7.682.096a1.455 1.455 0 00-.642.143c-.163.087-.24.203-.21.317.282 1.089 2.284 1.902 4.666 1.872l.113-.001c2.38-.03 4.362-.893 4.616-1.988.028-.114-.051-.228-.216-.312a1.434 1.434 0 00-.645-.127" fill="#A88873" mask="url(#d)"/><path d="M375.741 167.397a.116.116 0 00.084.116c.05.013.105-.017.128-.064l.414-.98-.544-.13-.082 1.058zm2.112-13.787c-.165.764-.323 1.523-.483 2.271a92.61 92.61 0 00-.441 2.206c-.131.718-.274 1.412-.386 2.071-.111.66-.222 1.286-.319 1.863a91.804 91.804 0 00-.425 2.796c-.038.288-.062.522-.084.697l1.126.273c.061-.166.147-.384.245-.659.23-.64.547-1.569.907-2.678.179-.558.37-1.166.571-1.802.203-.637.396-1.319.608-2.017.212-.698.415-1.425.621-2.163.2-.738.41-1.485.614-2.238.216-.847.442-1.686.659-2.51l-2.646-.641c-.186.831-.371 1.68-.567 2.532" fill="#412139"/><path d="M377.566 151.078l2.645.641.254-.98-2.675-.648-.224.987m4.374-9.075a.753.753 0 00-.435-.712.756.756 0 00-1.014.361l-.094.211 1.53.371c.01-.152.013-.231.013-.231m-.05 8.311a.427.427 0 01-.301-.276.993.993 0 01-.011-.587l1.382-5.051a1.38 1.38 0 00-.51-1.475l-.541-.397-.213-.158a.25.25 0 00-.295.402l.456.333.298.223a.876.876 0 01.326.94l-1.388 5.05c-.074.285-.069.589.022.872.099.3.35.537.656.61a.252.252 0 00.301-.187.251.251 0 00-.183-.3" fill="#E58030"/><path d="M381.347 142.423a.248.248 0 01.349-.053l.212.158.019-.294-1.53-.37c-.077.166-.19.432-.33.786a44.54 44.54 0 00-.947 2.674c-.167.555-.373 1.159-.546 1.804-.176.643-.374 1.323-.551 2.03-.08.304-.157.616-.233.932l2.676.65c.076-.317.153-.629.221-.936.167-.71.305-1.405.443-2.057.141-.652.236-1.283.342-1.853.189-1.145.316-2.104.386-2.789l-.457-.333a.25.25 0 01-.054-.349" fill="#FDA44C"/><path d="M374.97 166.338l.542.132a.538.538 0 00.346-.331s.046-.122.129-.353l-1.126-.271c-.033.241-.048.37-.048.37a.519.519 0 00.156.453" fill="#E58030"/><path d="M374.26 164.473a.14.14 0 01.156.075l.049.095c.013.026.042.033.069.04l-4.226-22.456-.426.08 4.255 22.61.012-.312a.143.143 0 01.112-.132m.972.111c.03-.012.055-.034.061-.065l.048-.242a.094.094 0 01.082-.074c.04-.005.08.017.096.055l.163.37-4.255-22.612-.426.08 4.231 22.488z" fill="#B6B057"/><path d="M374.554 164.694a.094.094 0 00.083-.063l.108-.3a.092.092 0 01.07-.061.092.092 0 01.089.03l.227.262c.023.027.06.04.095.03.004-.001.004-.007.008-.008l-4.232-22.488-.694.13 4.226 22.456c.008.002.011.012.02.012" fill="#C9C266"/><path d="M369.662 142.209a.137.137 0 00.16.109l.06-.012.427-.08.694-.13.425-.08.06-.011a.137.137 0 00.11-.16l-.03-.149-1.933.363.027.15zm1.509-1.887l-.06.01-1.546.292-.06.01a.136.136 0 00-.109.16l.029.15 1.934-.364-.028-.15a.137.137 0 00-.16-.108" fill="#DFD5DC"/><path d="M370.974 139.605a.445.445 0 00-.52-.355l-.67.126a.446.446 0 00-.356.52l.137.727 1.546-.29-.137-.728z" fill="#F2A5AB"/><path fill="#E9E3E8" d="M369.634 142.06l1.935-.364-.21-1.116-1.935.363z"/><path d="M375.424 164.203a.094.094 0 00-.082.074l-.048.242c-.005.031-.031.053-.06.065-.003.001-.004.007-.007.008a.093.093 0 01-.096-.03l-.227-.261a.094.094 0 00-.16.03l-.107.3a.094.094 0 01-.083.063c-.01 0-.012-.01-.02-.012-.028-.006-.056-.013-.07-.04l-.048-.094a.138.138 0 00-.155-.075.143.143 0 00-.111.13l-.013.315.744 1.77.01-.1a.118.118 0 01.091-.103c.05-.01.1.013.125.057l.068.125a.116.116 0 00.213-.025l.051-.186a.063.063 0 01.055-.046.06.06 0 01.06.037l.077.175-.03 1.163.082-3.157-.164-.37a.093.093 0 00-.095-.055" fill="#E1B887"/><path d="M376.408 166.447a.06.06 0 00-.06-.036.063.063 0 00-.054.046l-.052.185a.116.116 0 01-.097.084.117.117 0 01-.115-.06l-.07-.124a.117.117 0 00-.124-.057.118.118 0 00-.091.102l-.01.102.48 1.141c.025.06.083.095.14.085.057-.01.098-.065.1-.13l.03-1.164-.077-.174z" fill="#412139"/><path d="M380.439 153.745a.751.751 0 00-.738-.614h-8.035a.751.751 0 00-.74.614c-.92 4.931-1.384 9.4-1.384 12.679v2.26c0 .89.721 1.61 1.61 1.61h9.06c.89 0 1.612-.72 1.612-1.61v-2.26c0-3.279-.464-7.748-1.385-12.68" fill="#6DCEC9"/><path d="M353.66 176.696v-.14c0-.35.284-.634.634-.634h-24.617a.7.7 0 00-.7.7v.008a.7.7 0 00.7.7h24.618a.634.634 0 01-.635-.634" fill="#9D7580"/><path d="M354.824 175.923a.634.634 0 01-.634-.634v-.14c0-.35.284-.634.634-.634h-24.313a.7.7 0 00-.7.7v.008a.7.7 0 00.7.7h24.313z" fill="#CAB555"/><path d="M356.208 174.515a.634.634 0 01-.634-.632v-.142c0-.35.284-.633.634-.633H332.2a.7.7 0 00-.7.7v.008a.7.7 0 00.7.7h24.008z" fill="#F78D9E"/><path d="M354.19 172.475v-.14c0-.35.284-.634.634-.634h-24.313a.7.7 0 00-.7.7v.008c0 .386.313.698.7.698h24.313a.633.633 0 01-.634-.632" fill="#E8E1E6"/><path d="M353.498 171.067v-.14c0-.35.284-.634.634-.634h14.307-38.772a.7.7 0 00-.7.7V171a.7.7 0 00.7.7h24.465a.634.634 0 01-.634-.634" fill="#CED9E4"/><path d="M368.45 175.923h-14.156a.633.633 0 00-.634.632v.142c0 .35.283.633.634.633h31.662c.35 0 .635-.284.635-.633v-.142a.634.634 0 00-.634-.632h-17.509z" fill="#744C5D"/><path d="M369.283 174.515h-14.459a.634.634 0 00-.634.634v.14c0 .35.284.634.634.634h31.663c.35 0 .635-.283.635-.634v-.14a.634.634 0 00-.635-.634h-17.204z" fill="#A2843F"/><path d="M387.871 173.108H356.21a.635.635 0 00-.635.633v.141c0 .35.284.633.635.633h31.662c.35 0 .635-.283.635-.633v-.14a.635.635 0 00-.635-.634" fill="#EE5E74"/><path d="M368.44 171.701h-13.616a.634.634 0 00-.634.632v.142c0 .35.284.632.634.632h31.663c.35 0 .635-.282.635-.632v-.142a.634.634 0 00-.635-.632H368.44z" fill="#CFC2CC"/><path d="M353.498 170.926v.14c0 .35.284.635.634.635h31.663c.35 0 .635-.284.635-.634v-.14a.633.633 0 00-.635-.633h-31.663a.633.633 0 00-.634.632" fill="#7B5A66"/><path d="M190.865 126.095h46.672c1.98.174 3.126 1.951 3.587 3.886l8.135 42.88 1.566-.592-8.135-42.88c-.455-1.914-1.6-3.712-3.586-3.887h-46.672c-.71.065-.83.177-2.279.725.431-.124.262-.091.712-.132" fill="#8A95A7"/><path d="M250.893 173.706c.044-.739.026-.772-.068-1.436l-1.566.592-8.135-42.88c-.463-1.948-1.614-3.714-3.587-3.887h-46.672c-.45.04-.28.009-.712.133-1.418.72-1.623 2.174-1.4 3.754l8.136 42.88c.457 1.926 1.603 3.71 3.586 3.886h46.671c.817-.074 1.51-.433 2.28-.725l.052-.027h37.488c.322 0 .582-.26.582-.581v-1.473a.237.237 0 00-.237-.236h-36.418z" fill="#E7E0E5"/><path d="M249.478 175.996l-.052.027c-1.252.473-1.498.653-2.279.725h-43.981v.037c0 .3.244.545.546.545h81.475c.321 0 .582-.26.582-.582v-.752h-36.291z" fill="#E7E0E5"/><path d="M127.437 164.989c0-6.093 4.95-4.365 4.95-3.73v8.27c0 .012-.067.021-.126.04-1.622.555-4.824.555-4.824-4.58m-1.625 0c0 5.837 3.792 6.757 6.244 6.718a.326.326 0 01.331.324v1.285c0 1.34 1.2 2.423 2.54 2.423h10.133c1.342 0 2.691-1.083 2.691-2.423v-15.425c0-.4-.325-.727-.726-.727h-13.91a.727.727 0 00-.728.727v.818a.326.326 0 01-.408.314c-1.913-.505-6.167-1.018-6.167 5.966" fill="#6DCEC9"/><path d="M160.075 169.77l7.642-40.28c.124-.52.316-.863.84-.91h46.523c.522.048.567.394.494.91l-7.642 40.28c-.125.528-.296.861-.838.909H160.57c-.507-.046-.566-.398-.494-.908zm2.522 3.914l.103-.03.107-.01h39.024l-.106.01-.105.03-.045.021h4.972c.13 0 .237.106.237.237v1.473a.582.582 0 01-.582.581h-1.178v.16h1.105c1.974-.175 3.126-1.952 3.586-3.886l8.135-42.882c.246-1.738-.057-3.37-1.746-3.853l-.365-.033h-46.673c-1.981.174-3.124 1.942-3.586 3.886l-8.136 42.882c-.075.534-.11.703-.077 1.286l.01.15h5.273l.047-.022z" fill="#64455E"/><path fill="#5C3E66" d="M201.724 173.655H162.7l-.104.029-.045.022h39.024l.046-.022z"/><path d="M218.018 126.227l-1.567-.593c1.437.73 1.623 2.18 1.4 3.754l-8.136 42.881 1.566.593 8.136-42.881c.226-1.592.024-3.031-1.4-3.754" fill="#F0ECEF"/><path d="M206.129 176.156h-1.105v.037c.002.078.001.22 0 .556h2.672c1.97-.173 3.121-1.933 3.585-3.887l-1.566-.592c-.455 1.914-1.601 3.71-3.586 3.886" fill="#E7E0E5"/><path d="M206.202 175.996c.321 0 .582-.26.582-.581v-1.472a.236.236 0 00-.238-.237h-56.813v1.145h-8.127v-1.145H120.86a.237.237 0 00-.238.237v1.472c0 .321.261.581.583.581h84.998z" fill="#E7E0E5"/><mask id="f" fill="#fff"><use xlink:href="#e"/></mask><path fill="#F0ECEF" mask="url(#f)" d="M141.606 174.851h8.127v-1.145h-8.127z"/><path d="M205.024 176.193c-.002-.086-.007-.098-.02-.197l.02 1.334v-.582c0-.334.002-.477 0-.555" fill="#D5C9D1" mask="url(#f)"/><path d="M122.4 176.748c0 .322.262.582.583.582h81.44c.32 0 .582-.26.582-.582v-.751H122.4v.751z" fill="#D5C9D1" mask="url(#f)"/><path d="M215.08 128.58h-46.524c-.529.047-.715.391-.839.91l-7.641 40.28c-.073.507-.015.864.493.909h46.525c.54-.046.713-.381.838-.908l7.642-40.282c.073-.515.027-.86-.493-.909" fill="#9093B0" mask="url(#f)"/><path fill="#A7B2C7" mask="url(#f)" d="M174.5 170.679l32.767-42.098h-9.964l-32.766 42.098zm36.464-16.889l4.496-23.699-31.59 40.588h13.949z"/><path d="M101.25 278.139a.713.713 0 00.708.809h1.447a.816.816 0 00.804-.674l16.904-94.888h-7.293l-12.57 94.753zm283.212-94.753h-7.294l16.905 94.888c.069.39.408.674.804.674h1.446a.715.715 0 00.709-.809l-12.57-94.753zm-71.368 0l8.662 94.82c.038.42.39.742.813.742h1.423a.716.716 0 00.716-.748l-4.39-94.814h-7.224z" fill="#8A95A7" mask="url(#f)"/><path d="M103.96 177.33h302.885c.583 0 1.055.62 1.055 1.386v3.48c0 .765-.472 1.385-1.055 1.385H103.96c-.583 0-1.055-.62-1.055-1.385v-3.48c0-.766.472-1.386 1.055-1.386" fill="#8A95A7" mask="url(#f)"/><path d="M316.971 177.33h90.443c.583 0 1.057.62 1.057 1.386v3.48c0 .765-.473 1.385-1.056 1.385h-90.444c-.583 0-1.055-.62-1.055-1.385v-3.48c0-.766.472-1.386 1.055-1.386" fill="#8A95A7" mask="url(#f)"/></g></svg>