<?xml version="1.0" encoding="UTF-8"?>
<svg width="328px" height="220px" viewBox="0 0 328 220" version="1.1" xmlns="http://www.w3.org/2000/svg" xmlns:xlink="http://www.w3.org/1999/xlink">
    <!-- Generator: Sketch 50 (54983) - http://www.bohemiancoding.com/sketch -->
    <title>graphic/all-about-your-responsibility</title>
    <desc>Created with Sketch.</desc>
    <defs>
        <polygon id="path-1" points="0 219.444444 327.678105 219.444444 327.678105 0.376111111 0 0.376111111"></polygon>
    </defs>
    <g id="3_Employer(Slicing)" stroke="none" stroke-width="1" fill="none" fill-rule="evenodd">
        <g id="Employer_Contribution_AllAboutYourResponsibility_Tab1" transform="translate(-182.000000, -698.000000)">
            <g id="BodyCopy" transform="translate(0.000000, 643.000000)">
                <g id="graphic/all-about-your-responsibility" transform="translate(146.000000, 45.000000)">
                    <g id="Group" transform="translate(36.000000, 10.000000)">
                        <polygon id="Fill-1" fill="#F9A25A" points="325.919781 131.562833 322.804613 132.217278 322.640336 131.530056 324.519537 130.705611 325.376444 127.342278 326.092383 126.722278"></polygon>
                        <polygon id="Fill-2" fill="#FFB875" points="325.581125 126.716889 326.254885 130.709667 325.24036 135.586889 325.943534 135.594111 327.054627 132.431333 327.617389 128.330778 326.055088 125.811333"></polygon>
                        <g id="Group-257" transform="translate(0.000000, 0.179444)">
                            <path d="M323.168133,122.338778 C323.172018,122.442111 322.987205,123.743778 322.987205,123.743778 L322.398359,126.824889 L322.231862,128.571 L322.843463,128.919889 L323.391794,127.760444 L324.579476,125.956556 L325.418623,128.124333 L325.060099,131.851 L322.854562,133.231556 L322.879537,133.856 L325.63063,133.293222 L327.677994,128.387667 L326.138447,122.372667 L323.168133,122.338778 Z" id="Fill-3" fill="#FFB875"></path>
                            <polygon id="Fill-5" fill="#232341" points="322.824482 121.863 322.95879 124.103 326.420827 123.616889 326.631169 121.814667"></polygon>
                            <path d="M326.954396,121.853222 L322.782525,122.492111 L318.377002,107.478778 L315.577069,85.1621111 L315.56708,79.716 L318.073976,76.0687778 L319.210599,77.2743333 C319.210599,77.2743333 322.004981,104.652111 321.982782,104.952667 C321.961137,105.256 326.954396,121.853222 326.954396,121.853222" id="Fill-7" fill="#2D2A48"></path>
                            <polygon id="Fill-9" fill="#2D2A48" points="298.572906 183.653333 302.684838 183.655 302.835241 187.112778 298.724973 187.112222"></polygon>
                            <polygon id="Fill-11" fill="#2D2A48" points="310.719284 183.009333 315.275209 183.012667 315.22859 181.857667 315.194181 181.103778 315.131467 179.551 311.805957 179.481 310.904651 179.460444 310.818627 181.099889 310.795318 181.543222 310.764238 182.151"></polygon>
                            <polygon id="Fill-13" fill="#2D2A48" points="294.715603 188.9165 294.786642 190.507611 297.435062 191.568167 301.777316 191.568167 306.304382 190.432611 306.215583 188.388167 303.059901 186.223722 298.153776 186.222056 298.147116 186.298167"></polygon>
                            <path d="M296.49979,170.350389 C296.51533,170.739278 298.060981,185.103167 298.060981,185.103167 L303.398335,185.103167 L304.108724,168.543167 L309.497137,127.9515 L310.658734,128.192611 L310.780277,149.529278 L310.834667,159.344833 L310.637645,166.412611 L310.230281,181.100389 L311.657719,181.100389 L315.19468,181.103167 L315.963343,181.103167 L319.060196,165.707611 L319.265543,151.307611 L322.392365,121.043722 L322.618247,118.848167 L319.763926,111.9015 L319.763926,111.897611 L319.757266,111.897611 L318.068981,111.787056 L314.155181,111.528722 L307.733929,111.107056 L301.195574,110.679278 L300.593963,110.639833 L300.590633,110.639833 L298.421171,110.4965 L297.780156,110.453722 L296.742321,110.385389 L296.742321,110.3915 L295.283249,116.0115 L295.283804,116.014833 L295.20777,116.299278 L295.18779,116.377611 L294.724927,118.162056 L295.075682,121.850389 L295.216095,123.324278 L298.13202,154.123722 C298.13202,154.123722 298.109821,154.372056 298.062646,154.8065 C298.050992,154.914278 298.039337,155.032611 298.025462,155.165944 C298.011032,155.293167 297.997157,155.437056 297.980508,155.587611 C297.976623,155.643167 297.972183,155.702056 297.965523,155.760944 C297.941658,155.9765 297.915574,156.215389 297.890044,156.4665 C297.875614,156.590389 297.864514,156.722056 297.84731,156.852056 C297.847865,156.865389 297.84509,156.874833 297.845645,156.888722 C297.82733,157.080944 297.803465,157.283167 297.785151,157.489833 C297.760731,157.695389 297.740751,157.910944 297.716887,158.129833 C297.685252,158.459833 297.646958,158.799833 297.612548,159.149278 C297.574809,159.499278 297.537624,159.858167 297.50377,160.223722 C297.47824,160.465944 297.452156,160.714278 297.426626,160.959278 C297.221279,162.939278 297.010382,165.024278 296.839445,166.729278 C296.822795,166.887056 296.81003,167.037056 296.795601,167.180944 C296.618558,168.964833 296.494795,170.235944 296.49979,170.350389" id="Fill-15" fill="#232341"></path>
                            <path d="M296.5009,170.350389 C296.51644,170.737611 298.062091,185.102611 298.062091,185.102611 L299.697096,185.102611 L298.032122,171.375944 L300.983567,154.358722 L299.694321,124.690389 L301.194464,110.677611 L296.741766,110.384833 L295.207215,116.298167 L294.725482,118.162056 L295.21554,123.325389 L298.13313,154.125389 C298.13313,154.125389 296.48425,169.934833 296.5009,170.350389" id="Fill-17" fill="#232341"></path>
                            <polygon id="Fill-19" fill="#3A6AAD" points="294.725316 118.161833 295.215373 123.325722 296.933627 121.546278 299.881742 116.235722 299.776849 111.410722 295.207048 116.2985"></polygon>
                            <path d="M298.492099,74.3695 L306.748708,73.7422778 L313.101696,75.4728333 C313.101696,75.4728333 317.670941,100.360056 317.667057,100.427278 C317.662617,100.4945 319.767145,111.900056 319.767145,111.900056 L297.821669,111.348389 L296.518549,81.5295 L298.492099,74.3695 Z" id="Fill-21" fill="#FCFEFF"></path>
                            <polygon id="Fill-23" fill="#FFB875" points="300.559276 64.7671667 301.302409 69.2127222 301.9129 72.8816111 305.771201 76.7510556 308.745401 77.4805 310.863804 76.3793889 311.531459 74.0838333 310.348217 68.9682778 309.657252 65.9821667"></polygon>
                            <polygon id="Fill-25" fill="#F9A25A" points="300.559276 64.7671667 301.302409 69.2127222 302.686003 70.0699444 308.424616 70.7455 310.348217 68.9682778 309.657252 65.9821667"></polygon>
                            <polygon id="Fill-27" fill="#FCFEFF" points="307.38606 75.8457222 309.769749 75.8573889 309.855773 77.8968333 307.472639 77.8857222"></polygon>
                            <polygon id="Fill-29" fill="#2D2A48" points="298.476393 111.825556 320.056129 111.901667 319.99619 110.468333 298.414234 110.391667"></polygon>
                            <polygon id="Fill-31" fill="#2D2A48" points="312.37993 80.9357778 314.035469 95.438 314.587686 98.1741111 316.820972 109.072444 318.495936 120.279667 321.962414 121.509111 324.81396 121.047444 320.632099 106.016333 320.310204 99.1752222 318.316674 76.2868889 313.32397 74.6524444 312.67796 74.4418889"></polygon>
                            <polygon id="Fill-33" fill="#2D2A48" points="288.07574 125.307556 290.006556 127.549222 295.580336 121.285889 299.24217 114.338667 306.304437 94.9636667 306.523104 94.3614444 304.141635 79.2175556 300.89882 72.6403333 299.318759 72.9992222 288.967612 75.3486667 292.880857 86.0192222 293.144478 86.7408889 294.793358 101.049222 292.476823 109.705333"></polygon>
                            <path d="M292.880968,86.0193333 L293.144589,86.741 L294.792914,101.049333 L294.277327,84.5976667 C294.277327,84.5976667 293.611892,85.2632222 292.880968,86.0193333" id="Fill-35" fill="#1D1C22"></path>
                            <polygon id="Fill-37" fill="#FFB875" points="298.636286 115.488222 296.07833 116.794889 297.375345 120.627111 299.545362 116.719333"></polygon>
                            <path d="M285.603197,102.951278 L295.038608,116.174056 L296.459942,118.166833 L299.303163,115.7335 L298.446257,113.947944 L292.018899,100.530167 L294.27716,84.5979444 L292.602196,79.0585 L288.967556,75.3485 L288.204443,76.5746111 C288.204443,76.5746111 285.40451,100.706833 285.519394,101.012944 C285.634832,101.320722 285.603197,102.951278 285.603197,102.951278" id="Fill-39" fill="#2D2A48"></path>
                            <polygon id="Fill-41" fill="#2E3191" points="301.634572 78.783 299.392961 79.7291111 306.304271 94.9635556 306.523492 94.3613333 304.142024 79.2174444 300.899208 72.6402222 299.318592 72.9991111 297.809015 76.8491111"></polygon>
                            <polygon id="Fill-43" fill="#2E3191" points="312.37993 80.9357778 314.035469 95.438 314.587686 98.1741111 315.64328 83.8724444 312.935476 80.5585556 315.505087 80.5713333 313.32397 74.6524444 312.67796 74.4418889"></polygon>
                            <polygon id="Fill-45" fill="#2D2A48" points="310.375134 182.173833 309.847337 185.888833 313.737272 185.889389 314.2129 184.5255 315.719702 185.889944 327.557672 186.574944 327.498288 185.111056 321.233543 183.661056 316.156481 181.797167"></polygon>
                            <polygon id="Fill-47" fill="#EC1C24" points="307.894987 79.8517778 307.086365 107.981222 309.977316 109.834556 312.887691 108.110667 309.730345 79.8606667"></polygon>
                            <polygon id="Fill-49" fill="#D30D1C" points="309.28735 76.8748889 308.090234 76.8687778 307.370964 78.0671111 307.894876 79.8515556 309.730234 79.8604444 310.188657 78.5487778"></polygon>
                            <polygon id="Fill-51" fill="#FEFFFF" points="308.226706 75.9086667 305.935146 80.5964444 300.899153 72.6403333 301.558483 71.4225556"></polygon>
                            <polygon id="Fill-53" fill="#FEFFFF" points="311.645509 72.9317778 308.946585 75.9123333 311.431283 80.6228889 312.677794 74.4417778"></polygon>
                            <path d="M297.707896,54.2213889 L298.08529,62.9236111 L302.544647,69.0158333 L302.625121,69.1241667 L304.987165,69.2808333 L308.405358,69.5080556 L312.18263,66.1125 L312.760931,65.5930556 C312.760931,65.5930556 314.128985,56.0080556 314.212789,55.5997222 C314.251084,55.4219444 314.337107,54.3819444 314.425351,53.2375 L314.425351,53.2347222 C314.45532,52.8580556 314.484735,52.4669444 314.51082,52.0930556 C314.601283,50.9102778 314.677872,49.8841667 314.677872,49.8841667 L311.794136,45.3275 L305.350684,44.2180556 L300.347436,43.3597222 L298.08751,50.8441667 L297.832769,53.1052778 L297.801689,53.3702778 L297.707896,54.2213889 Z" id="Fill-55" fill="#FFB875"></path>
                            <polygon id="Fill-57" fill="#FFB875" points="297.706231 54.2208333 298.084735 62.9247222 302.624011 69.1241667 304.98883 69.2813889 302.882082 68.6525 298.536498 62.5458333 298.664146 51.5836111 298.08751 50.8441667 297.802799 53.3691667"></polygon>
                            <polygon id="Fill-59" fill="#FFB875" points="298.396751 59.3336667 296.992623 58.0886667 296.85665 54.9653333 297.130261 54.4503333 298.225259 55.3858889"></polygon>
                            <polygon id="Fill-61" fill="#232341" points="295.038608 116.173944 296.460497 118.166722 299.303163 115.733389 298.446257 113.947833"></polygon>
                            <polygon id="Fill-63" fill="#F9BE8F" points="297.706231 54.2208333 298.084735 62.9247222 302.624011 69.1241667 304.98883 69.2813889 302.882082 68.6525 298.536498 62.5458333 298.664146 51.5836111 298.08751 50.8441667 297.802799 53.3691667"></polygon>
                            <polygon id="Fill-65" fill="#F9BE8F" points="298.396751 59.3336667 296.992623 58.0886667 296.85665 54.9653333 297.130261 54.4503333 298.225259 55.3858889"></polygon>
                            <path d="M297.802744,53.3690556 L298.460409,53.1223889 L301.580571,47.7935 L301.537282,46.1190556 L303.099028,48.1946111 L310.453221,48.5073889 L314.426405,53.2329444 C314.550169,51.6568333 314.676152,49.8857222 314.676152,49.8857222 L312.84135,44.7746111 L310.024213,43.3668333 L302.352009,42.4818333 L299.551522,43.2379444 L298.287806,46.8873889 L297.802744,53.3690556 Z" id="Fill-67" fill="#51464F"></path>
                            <polygon id="Fill-69" fill="#232341" points="310.230392 181.100167 311.65783 181.100167 311.806568 179.482944 314.531021 166.576278 314.327894 157.404611 318.166771 123.801278 310.65829 128.192944 310.780388 149.529611 310.834778 159.345167 310.637201 166.412944"></polygon>
                            <path d="M196.440365,45.6248889 L193.329638,42.6587778 L185.075249,40.891 L179.74844,41.3037778 L177.626707,43.4793333 L180.109184,55.6587778 L187.558836,70.1798889 C187.558836,70.1798889 186.761313,110.443778 186.993299,109.853778 C187.225286,109.264333 200.015066,110.618222 199.920162,109.853778 C199.824704,109.088778 196.440365,45.6248889 196.440365,45.6248889" id="Fill-71" fill="#FCFEFF"></path>
                            <polygon id="Fill-73" fill="#FFB875" points="192.287142 41.2965556 190.578878 44.2993333 183.900665 44.741 179.979649 40.8926667 179.979649 32.2026667 191.760455 31.751 192.040726 36.8304444"></polygon>
                            <polygon id="Fill-75" fill="#F9A25A" points="192.040559 36.8304444 189.724024 39.3821111 181.683862 39.3821111 179.980038 37.6048889 179.980038 32.2026667 191.760288 31.751"></polygon>
                            <polygon id="Fill-77" fill="#FEFFFF" points="184.682037 48.8985556 186.993022 43.2107778 179.977929 39.4891111 179.565015 40.8913333"></polygon>
                            <polygon id="Fill-79" fill="#EC1C24" points="186.998461 46.7875556 187.642806 89.6314444 194.407598 92.9008889 200.52527 88.077 189.469838 46.5158889"></polygon>
                            <polygon id="Fill-81" fill="#D30D1C" points="188.604384 43.0337778 186.993244 43.2104444 186.133007 44.9376667 186.998239 46.7876667 189.470171 46.516 189.969109 45.151"></polygon>
                            <mask id="mask-2" fill="white">
                                <use xlink:href="#path-1"></use>
                            </mask>
                            <g id="Clip-84"></g>
                            <polygon id="Fill-83" fill="#2D2A48" mask="url(#mask-2)" points="193.099316 210.476667 199.920162 210.476667 199.920162 205.711111 193.099316 205.711111"></polygon>
                            <polygon id="Fill-85" fill="#2D2A48" mask="url(#mask-2)" points="171.789861 214.452778 177.713841 214.452778 177.713841 209.688333 171.789861 209.688333"></polygon>
                            <path d="M208.779714,120.180056 L208.753075,120.513944 L208.259687,126.373389 L207.095315,140.136167 L202.335153,181.110611 L202.49943,194.138389 L201.000953,206.076167 L199.920939,206.125056 L197.205921,206.250056 L194.29832,206.382833 L193.098428,206.436722 L192.280371,206.476722 L192.142178,206.481167 L190.640371,169.587278 L192.805393,131.9895 L193.329305,123.055056 L190.640371,124.122833 L189.595877,130.997278 L181.305968,189.452833 L178.692513,211.046722 L177.714618,211.086167 L171.793968,211.300056 L170.153968,211.362278 L171.37606,193.337278 L169.904777,180.701167 L171.527572,154.556722 L169.40251,123.090611 L169.39363,122.921167 L170.887667,118.436167 L176.89212,114.000056 L186.13273,107.192833 L186.955782,107.081722 L191.568872,106.481167 L193.547417,106.218389 L194.080763,106.147278 L194.120723,106.142833 L198.040628,105.631167 L199.761102,107.303944 L199.770537,107.308389 L204.605623,112.007278 L207.78406,115.095056 C207.78406,115.9445 208.779714,120.180056 208.779714,120.180056" id="Fill-86" fill="#1D1C22" mask="url(#mask-2)"></path>
                            <path d="M208.781324,120.182722 L208.259077,126.373833 L196.199111,117.223833 L190.848992,104.807722 L193.545141,106.218278 L204.605013,112.006056 L207.784559,115.093833 C207.784559,115.944389 208.781324,120.182722 208.781324,120.182722" id="Fill-87" fill="#1D1C22" mask="url(#mask-2)"></path>
                            <polygon id="Fill-88" fill="#2D2A48" mask="url(#mask-2)" points="194.119613 82.6665 194.119613 106.969278 193.146713 109.8965 193.098983 110.034278 191.262516 115.560389 171.165718 122.563167 169.40473 123.090944 166.494909 123.959833 165.991532 122.729833 170.3632 100.607056 170.3632 100.594278 170.130659 93.9603889 169.893677 87.1898333 169.395295 83.7403889 163.371972 48.5098333 177.820066 41.4915 179.566625 40.8931667 179.751992 41.3059444 187.179999 60.3776111 187.179999 60.3870556 192.363065 72.0476111 192.425224 72.1853889 192.486828 72.3276111 192.486828 72.3370556 192.500703 72.3559444 192.505697 72.3659444 192.69606 72.7887222 193.464168 78.1426111 193.469163 78.1626111 193.488032 78.2909444"></polygon>
                            <path d="M173.236946,72.7885556 C173.236946,72.7885556 171.447098,60.9702222 171.447098,61.2624444 C171.447098,61.5541111 176.996459,72.5668889 176.996459,72.5668889 L173.236946,72.7885556 Z" id="Fill-89" fill="#1D1C22" mask="url(#mask-2)"></path>
                            <polygon id="Fill-90" fill="#1D1C22" mask="url(#mask-2)" points="190.790718 84.5957222 170.130603 93.9601667 169.893622 87.1896111 169.395239 83.7401667 169.480708 81.8257222"></polygon>
                            <polygon id="Fill-91" fill="#2E3191" mask="url(#mask-2)" points="193.827465 100.148556 189.335364 76.683 177.625597 53.4652222 179.979871 48.4757778 175.537164 46.7896667 177.819844 41.4913333 179.689056 40.6957778 192.425557 72.1852222"></polygon>
                            <polygon id="Fill-92" fill="#FFB875" mask="url(#mask-2)" points="170.947606 72.7885556 174.991274 71.5302222 190.639816 72.1596667 192.146618 73.9041111 192.063924 77.9135556 180.383017 81.8346667"></polygon>
                            <polygon id="Fill-93" fill="#2D2A48" mask="url(#mask-2)" points="207.327746 47.9990556 210.827522 51.3812778 214.58315 60.6779444 215.144246 64.7529444 217.278744 74.8307222 210.103813 77.8090556 207.529762 69.0573889"></polygon>
                            <polygon id="Fill-94" fill="#2D2A48" mask="url(#mask-2)" points="212.929664 120.406278 211.699802 121.565722 196.839349 116.281833 194.119335 106.969056 192.467681 73.0079444 193.331247 42.5890556 194.195369 42.8123889 207.761027 48.1818333 208.529691 76.1146111 208.207241 81.7546111 207.846496 88.0979444 207.357549 96.7351667"></polygon>
                            <polygon id="Fill-95" fill="#1D1C22" mask="url(#mask-2)" points="208.207352 81.7545 207.846607 88.0978333 195.424786 83.9400556 207.490303 81.3700556"></polygon>
                            <polygon id="Fill-96" fill="#1D1C22" mask="url(#mask-2)" points="206.104489 68.9609444 204.158133 57.8515 203.622012 70.8642778"></polygon>
                            <polygon id="Fill-97" fill="#2E3191" mask="url(#mask-2)" points="198.97035 54.7096667 195.724759 77.8091111 193.969876 103.551333 192.467514 71.5674444 193.04859 42.0752222 194.193538 42.8113333 198.353754 46.9885556 195.524962 49.3124444"></polygon>
                            <polygon id="Fill-98" fill="#FFB875" mask="url(#mask-2)" points="201.381067 72.7885556 210.104424 63.2313333 215.354089 62.0002222 217.279354 63.2313333 219.378887 68.4241111 219.378887 70.5263333 219.378887 72.7885556 208.529358 76.1146667"></polygon>
                            <polygon id="Fill-99" fill="#2D2A48" mask="url(#mask-2)" points="168.591057 47.4386111 163.369696 48.5097222 159.313263 52.7502778 161.370062 82.1902778 164.693351 85.5158333 172.564241 88.0480556 207.69132 81.4536111 192.219266 77.8519444 183.679057 78.8630556 173.236891 72.7886111 172.2873 65.3902778"></polygon>
                            <polygon id="Fill-100" fill="#2D2A48" mask="url(#mask-2)" points="190.009734 72.0344444 211.101632 72.1494444 219.378776 70.5261111 221.130885 75.535 221.103135 80.2511111 216.716482 83.2061111 214.84949 83.195 192.062648 77.8322222"></polygon>
                            <polygon id="Fill-101" fill="#FEFFFF" mask="url(#mask-2)" points="193.32936 42.6588889 192.146673 40.2027778 188.604162 43.0338889 191.713225 48.4577778"></polygon>
                            <polygon id="Fill-102" fill="#51464F" mask="url(#mask-2)" points="198.834321 12.4668333 197.868636 18.4490556 196.688724 26.2868333 178.548826 30.3640556 177.341164 29.1551667 174.562321 21.5351667 173.633821 9.43461111 176.827797 2.8035 189.012636 0.375722222 197.854761 5.5685"></polygon>
                            <polygon id="Fill-103" fill="#FFB875" mask="url(#mask-2)" points="196.065302 21.1837222 197.160301 19.4148333 198.217004 19.7648333 197.386737 23.0870556 197.140876 26.1237222 195.898805 26.9659444"></polygon>
                            <polygon id="Fill-104" fill="#FFB875" mask="url(#mask-2)" points="175.812995 21.1837222 174.717997 19.4148333 173.661293 19.7648333 174.49156 23.0870556 174.686362 25.8092778 175.82132 26.5670556"></polygon>
                            <polygon id="Fill-105" fill="#FFB875" mask="url(#mask-2)" points="197.119453 13.6582222 196.748719 18.5948889 196.601646 21.4837778 196.145998 30.4448889 189.040441 38.6887778 181.997044 38.6887778 175.650715 30.501 175.465903 20.6476667 175.441484 19.4693333 175.328265 15.9243333 176.277301 10.9171111 183.274079 10.546 194.38057 9.96155556 196.616631 12.9787778"></polygon>
                            <path d="M178.723981,13.1932778 C185.081964,13.1438333 191.27012,13.9138333 197.50323,15.0849444 L197.622553,13.1643889 L196.616353,12.9788333 L183.273802,10.5460556 L176.277578,10.9171667 L175.794736,13.4638333 C176.774296,13.3049444 177.754966,13.2010556 178.723981,13.1932778" id="Fill-106" fill="#F9BE8F" mask="url(#mask-2)"></path>
                            <polygon id="Fill-107" fill="#232341" mask="url(#mask-2)" points="192.10072 208.171556 200.920091 208.171556 207.19316 211.713778 213.920768 213.331556 213.920768 215.400444 206.647603 215.969889 199.3034 214.925444 197.484693 213.504333 197.575157 214.925444 191.737201 214.879889"></polygon>
                            <polygon id="Fill-108" fill="#232341" mask="url(#mask-2)" points="166.137494 215.786056 166.137494 217.981056 169.69721 219.444389 175.639505 219.444389 181.904804 217.876611 181.904804 215.054944 177.713508 212.071056 171.00255 212.071056 170.98812 212.174944"></polygon>
                            <polygon id="Fill-109" fill="#F9BE8F" mask="url(#mask-2)" points="196.601868 21.4837222 196.14622 30.4448333 189.040663 38.6887222 189.021794 38.6887222 192.306788 33.2053889 194.537299 29.7270556 196.540819 20.7181667"></polygon>
                            <polygon id="Fill-110" fill="#F9BE8F" mask="url(#mask-2)" points="182.001928 38.6886111 181.996933 38.6886111 175.651159 30.5013889 175.466347 20.6475 177.473752 30.2302778 178.427782 31.8558333 179.23474 33.2336111"></polygon>
                            <polygon id="Fill-111" fill="#232341" mask="url(#mask-2)" points="196.565572 171.833111 197.205477 206.249778 194.298431 206.382556 193.098539 206.436444 192.280482 206.476444 190.79588 169.973111 192.960347 132.376444 193.484814 123.437556 202.325829 120.452"></polygon>
                            <polygon id="Fill-112" fill="#51464F" mask="url(#mask-2)" points="175.541438 25.7128333 178.403529 28.7889444 181.481512 26.3378333 188.966683 26.3378333 193.4438 29.0689444 196.520673 24.4145 196.146053 30.4450556 189.040497 38.6883889 181.997099 38.6883889 175.650771 30.5011667"></polygon>
                            <polygon id="Fill-113" fill="#FFB875" mask="url(#mask-2)" points="182.741176 30.3992222 188.686801 30.3992222 187.567383 32.0097778 184.000452 31.9397778"></polygon>
                            <polygon id="Fill-114" fill="#51464F" mask="url(#mask-2)" points="198.43162 13.0055556 198.43162 13.6022222 197.155139 16.0977778 195.433 13.8816667 186.133562 13.9427778 176.289122 7.19444444 195.390821 6.10111111"></polygon>
                            <polygon id="Fill-115" fill="#2D2A48" mask="url(#mask-2)" points="80.3734308 184.527389 80.3734308 184.625722 74.3573225 184.747944 74.3534376 183.974056 74.3501076 182.815722 74.3462227 181.8735 76.6744122 181.876833 80.3656609 181.755167 80.3695459 183.0585"></polygon>
                            <polygon id="Fill-116" fill="#2D2A48" mask="url(#mask-2)" points="59.366668 182.059389 55.1359675 182.053278 55.1587222 184.932722 59.3872027 184.936056"></polygon>
                            <path d="M86.8756007,113.161833 L86.8317563,113.972944 L86.7845821,114.9085 L86.7801421,114.915722 L86.4921015,120.464611 L86.2151607,125.782944 C86.2151607,125.782944 86.0947276,127.269611 85.9049205,129.621833 C85.1934213,138.520167 81.3612047,164.769611 81.3562098,165.0785 C81.277401,169.727389 80.8001083,178.229611 80.8039932,178.620722 C80.8039932,179.015167 80.9860305,183.105722 80.9860305,183.105722 L80.3694349,183.0585 L77.8514382,182.869056 L74.3505516,182.815722 L73.9415228,182.786833 L73.8971235,176.777389 L73.9248731,146.849056 L72.4474856,129.275167 L67.959269,142.001278 L67.7367174,142.914611 L63.9050558,158.705722 L61.1756074,169.9635 L60.4641083,182.774611 L59.3729949,182.854611 L54.0040068,183.291833 L54.7393706,183.201278 L53.7059763,177.547944 L54.6333672,169.945722 C54.6333672,169.945722 54.9036481,166.690722 55.2716074,162.339611 C55.4908291,159.714611 55.7500102,156.685722 56.0053063,153.726833 C56.5891574,146.859056 57.1546937,140.379056 57.2168528,140.196833 C57.2562572,140.0835 57.4432893,138.640722 57.6836007,136.635722 C57.8439932,135.324056 58.0271404,133.771833 58.2125076,132.1935 C58.7308697,127.762389 59.2597766,123.149056 59.2597766,123.149056 L60.3076007,117.460167 L67.8022064,112.939611 L71.1266058,112.979611 L75.4538748,113.026833 L84.8432217,113.136278 L86.8756007,113.161833 Z" id="Fill-117" fill="#232341" mask="url(#mask-2)"></path>
                            <path d="M67.7364954,142.914389 L63.9053888,158.706056 C62.0839066,156.689389 55.2713854,162.339944 55.2713854,162.339944 C55.4911621,159.714389 55.7497882,156.6855 56.0050843,153.726611 C56.5889354,146.859389 57.1550267,140.379389 57.2166308,140.196611 C57.2560352,140.083278 57.4430673,138.641056 57.6839337,136.6355 L65.1241503,134.206056 L67.7364954,142.914389 Z" id="Fill-118" fill="#232341" mask="url(#mask-2)"></path>
                            <path d="M62.2255959,65.6113333 L65.1825909,62.8885556 L75.4771289,64.4724444 L79.2333117,66.6413333 L87.8795249,110.947444 L86.7789766,114.915778 C86.7789766,114.915778 71.4268007,115.480778 71.4229157,114.741333 C71.4195858,114.001333 62.2255959,65.6113333 62.2255959,65.6113333" id="Fill-119" fill="#FCFEFF" mask="url(#mask-2)"></path>
                            <path d="M75.3140169,69.8127222 C75.3140169,69.8127222 78.6323113,83.4388333 78.7166701,83.3966111 C78.8010288,83.3538333 82.8635668,108.346056 82.8635668,108.346056 L79.4858883,111.862167 L78.6417462,111.852167 L74.4510051,108.889389 L73.1906193,83.3077222 L73.5624636,69.7805 L75.3140169,69.8127222 Z" id="Fill-120" fill="#EC1C24" mask="url(#mask-2)"></path>
                            <polygon id="Fill-121" fill="#2E3191" mask="url(#mask-2)" points="66.2644914 115.397056 86.2841462 115.412056 86.4795032 113.947056 67.8539871 113.1815"></polygon>
                            <polygon id="Fill-122" fill="#FFB875" mask="url(#mask-2)" points="76.7730342 63.9072778 75.6214267 66.9567222 71.9351729 67.5050556 66.3813726 62.6222778 66.3197685 59.6461667 66.2481746 56.1767222 66.2376298 55.5989444 66.4007973 55.9872778 67.1478159 57.7783889 75.5287431 58.4083889 75.9272271 61.1817222 75.9777313 61.7011667 76.1137042 63.0983889"></polygon>
                            <path d="M75.9778978,61.7012778 C73.3583377,61.8312778 69.3213293,62.0585 69.3213293,62.0585 L66.319935,59.6462778 L66.2483411,56.1768333 C66.3005103,56.1129444 66.3482396,56.0501667 66.4004088,55.9873889 L67.1479824,57.7779444 L75.5283547,58.4079444 L75.9268386,61.1812778 L75.9778978,61.7012778 Z" id="Fill-123" fill="#F9A25A" mask="url(#mask-2)"></path>
                            <path d="M78.1588481,61.6231667 C78.1738328,61.6231667 78.1738328,61.6231667 78.1671729,61.6276111 C78.163288,61.6270556 78.1588481,61.6231667 78.1588481,61.6231667" id="Fill-124" fill="#FDE792" mask="url(#mask-2)"></path>
                            <path d="M79.8059519,53.6229444 C79.8059519,53.6268333 79.802067,53.6307222 79.7942971,53.6346111 C79.802067,53.6151667 79.8059519,53.6112778 79.8059519,53.6229444" id="Fill-125" fill="#FDE792" mask="url(#mask-2)"></path>
                            <polygon id="Fill-126" fill="#51464F" mask="url(#mask-2)" points="80.0482058 46.7262778 80.4877591 43.7851667 81.344666 38.0623889 80.6770112 35.9635 74.5027303 31.6546111 64.7631838 33.3323889 61.6041719 39.6129444 62.1747032 48.3973889 64.6094511 57.2873889 65.4824528 57.2990556 69.207001 48.0312778"></polygon>
                            <polygon id="Fill-127" fill="#FCFEFF" mask="url(#mask-2)" points="72.8522964 64.6673333 71.3626992 64.639 71.376019 67.4078889 73.3806484 67.1945556"></polygon>
                            <polygon id="Fill-128" fill="#FCFEFF" mask="url(#mask-2)" points="74.1091858 64.969 75.2308237 64.8795556 75.2419235 67.6462222 73.2372941 67.359"></polygon>
                            <path d="M54.7484169,184.370556 C54.3543729,185.029444 53.6073543,186.086111 53.6073543,186.086111 L51.5771953,187.773333 L51.59218,189.557778 L55.7340819,191.026111 L59.3259871,191.026111 L62.0948399,187.703889 L61.1535743,186.091667 L59.6922816,184.375556 L54.7484169,184.370556 Z" id="Fill-129" fill="#232341" mask="url(#mask-2)"></path>
                            <polygon id="Fill-130" fill="#F9A25A" mask="url(#mask-2)" points="94.3284156 124.996667 91.1444291 125.656111 91.0067912 124.963889 92.9442667 124.133333 93.9504663 120.746111 94.7024799 120.121667"></polygon>
                            <polygon id="Fill-131" fill="#FFB875" mask="url(#mask-2)" points="94.7018694 119.204 96.1820318 121.741222 95.4433381 125.871778 94.1868372 129.056778 93.4747831 129.050111 94.7029794 124.137889 94.1840623 120.116222"></polygon>
                            <path d="M91.9111499,115.886944 C91.9111499,115.990833 91.6697286,117.3025 91.6697286,117.3025 L90.9471296,120.405278 L90.7062633,122.164167 L91.312314,122.515278 L91.9155898,121.3475 L93.1937354,119.530833 L93.9546288,121.714167 L93.4384866,125.4675 L91.1458166,126.858611 L91.1458166,127.4875 L93.9568487,126.919722 L96.233424,121.979722 L94.920314,115.921389 L91.9111499,115.886944 Z" id="Fill-132" fill="#FFB875" mask="url(#mask-2)"></path>
                            <polygon id="Fill-133" fill="#2D2A48" mask="url(#mask-2)" points="86.8192135 82.5021111 92.5861306 99.4993333 95.3871729 116.548222 91.4023337 117.078222 87.5190579 100.633778"></polygon>
                            <polygon id="Fill-134" fill="#2D2A48" mask="url(#mask-2)" points="75.7058409 119.5035 72.5163046 122.791278 57.4061049 122.6485 56.7279052 121.307944 60.3986193 102.667389 59.1576582 97.9479444 56.4903689 87.7785 52.8235398 73.8140556 52.2319188 68.0096111 65.7404129 62.2235 74.9910118 101.075167"></polygon>
                            <polygon id="Fill-135" fill="#2D2A48" mask="url(#mask-2)" points="59.1574362 97.9480556 56.4901469 87.7780556 58.9898288 84.3486111"></polygon>
                            <polygon id="Fill-136" fill="#51464F" mask="url(#mask-2)" points="46.5617367 132.306222 46.5756115 129.806222 49.4721124 128.521778 49.1746369 127.546222 45.4500887 128.747333 45.1753679 132.294556"></polygon>
                            <polygon id="Fill-137" fill="#FFB875" mask="url(#mask-2)" points="52.644444 117.875889 52.6721936 121.180889 55.4382714 126.280889 56.0609719 128.078667 55.5237401 130.212 54.418197 130.993667 50.4444575 130.958111 46.9663255 129.201444 46.2631513 127.822 46.9086064 123.024778 47.5634964 118.649222"></polygon>
                            <polygon id="Fill-138" fill="#51464F" mask="url(#mask-2)" points="52.544712 127.119056 57.0606782 128.711833 57.8393313 133.784056 56.0988778 133.115722 55.7481232 129.599611 52.5791215 128.481278"></polygon>
                            <polygon id="Fill-139" fill="#2D2A48" mask="url(#mask-2)" points="53.204819 120.661278 56.2517225 97.3873889 58.9894958 84.3490556 57.5442978 71.4540556 54.2415431 68.0462778 52.2319188 68.0090556 51.2945381 69.3935 50.6340981 87.3262778 46.8779154 119.746833"></polygon>
                            <path d="M77.770798,64.7601111 L86.6617624,69.2667778 L89.2341482,86.384 L89.2646728,109.146222 L91.4091601,121.385111 L88.0919756,122.147889 L85.2953733,119.202889 C85.2953733,119.202889 83.9123343,100.451222 83.7780264,100.048444 C83.6431635,99.6445556 79.2620602,67.7367778 79.2620602,67.7367778 L77.7746829,65.9017778 L77.770798,64.7601111 Z" id="Fill-140" fill="#2D2A48" mask="url(#mask-2)"></path>
                            <polygon id="Fill-141" fill="#2E3191" mask="url(#mask-2)" points="79.6563817 65.033 82.2953665 69.5852222 80.8085442 70.6296667 82.7981888 72.3785556 83.8454579 100.045778 79.2617827 67.7368889 77.7744054 65.9013333 76.7382362 63.6168889"></polygon>
                            <polygon id="Fill-142" fill="#665863" mask="url(#mask-2)" points="65.5902321 132.747333 64.4086552 154.703444 59.8666044 154.172889 59.2250342 154.096778 39.3840866 151.824 40.673332 130.870667 61.4422254 132.436222"></polygon>
                            <polygon id="Fill-143" fill="#51464F" mask="url(#mask-2)" points="65.5902321 132.747333 64.4086552 154.703444 59.8666044 154.172889 61.4422254 132.436222"></polygon>
                            <polygon id="Fill-144" fill="#FEFFFF" mask="url(#mask-2)" points="65.7404129 62.2237778 66.1999459 60.9937778 72.8520745 64.6671111 70.3640474 69.7537778 69.6364535 69.7404444"></polygon>
                            <polygon id="Fill-145" fill="#2E3191" mask="url(#mask-2)" points="63.2851858 63.1042778 63.204157 69.6615 67.5064514 70.1792778 64.5466816 73.9426111 71.5617746 93.8042778 74.883954 100.863167 65.8203871 61.2576111"></polygon>
                            <polygon id="Fill-146" fill="#FEFFFF" mask="url(#mask-2)" points="74.1091858 64.969 77.0295513 68.8117778 77.4913042 68.8212222 77.77102 64.7601111 76.4129557 62.8162222"></polygon>
                            <polygon id="Fill-147" fill="#D30D1C" mask="url(#mask-2)" points="71.9807932 66.449 74.8401096 65.9301111 75.9495377 67.3912222 75.4994396 70.2451111 73.6701875 70.5445556 71.2132399 68.0178889"></polygon>
                            <path d="M80.0558091,49.6651667 L80.000865,51.0707222 L79.9192812,53.2057222 L76.7142051,61.0118333 L69.0625367,60.9435 L64.1314369,53.7285 L63.4204927,49.0429444 L63.3760934,41.7946111 L63.3727635,41.3323889 L67.8115858,36.2046111 C67.8115858,36.2046111 72.5345638,35.7735 72.9274978,35.6473889 C73.3204318,35.5240556 77.113244,36.0851667 77.113244,36.0851667 L78.5390173,37.8123889 L78.9658058,38.3290556 L80.0391594,43.3507222 L80.0485942,46.5901667 L80.0485942,46.8840556 L80.0558091,49.6651667 Z" id="Fill-148" fill="#FFB875" mask="url(#mask-2)"></path>
                            <polygon id="Fill-149" fill="#F9BE8F" mask="url(#mask-2)" points="80.0487607 46.5901111 79.4610247 46.149 78.9076981 42.9128889 77.5818234 40.3056667 77.2399486 38.6673333 78.5386288 37.8123333 78.9659723 38.329 80.0387709 43.3506667"></polygon>
                            <polygon id="Fill-150" fill="#F9BE8F" mask="url(#mask-2)" points="69.0611492 60.9444444 64.1317144 53.7305556 63.4202152 49.0433333 63.3763709 41.7927778 65.6601611 42.4244444 66.7102051 48.4827778 66.586997 54.6594444"></polygon>
                            <path d="M79.5436629,38.0061111 L77.5828778,40.3066667 L65.4013685,43.2616667 L63.6947695,47.3777778 L63.1181333,50.7111111 L62.7035547,37.4433333 C62.7035547,37.4433333 64.3518795,35.12 64.5494565,34.8522222 C64.7481435,34.585 75.9006985,33.8383333 75.9006985,33.8383333 L78.622377,35.1805556 L79.5436629,38.0061111 Z" id="Fill-151" fill="#51464F" mask="url(#mask-2)"></path>
                            <polygon id="Fill-152" fill="#51464F" mask="url(#mask-2)" points="64.7854389 56.9519444 65.4492088 50.3341667 64.7571343 41.3441667 62.8013442 49.2402778"></polygon>
                            <polygon id="Fill-153" fill="#FFB875" mask="url(#mask-2)" points="65.5745259 49.886 64.5411316 48.4443333 64.1348778 49.1393333 64.1121232 51.2087778 64.4745327 52.1832222 65.5095919 54.0715556"></polygon>
                            <polygon id="Fill-154" fill="#F9BE8F" mask="url(#mask-2)" points="65.5745259 49.886 64.5411316 48.4443333 64.1348778 49.1393333 64.1121232 51.2087778 64.4745327 52.1832222 65.5095919 54.0715556"></polygon>
                            <polygon id="Fill-155" fill="#232341" mask="url(#mask-2)" points="76.7291343 182.9985 74.3504406 182.815722 73.9419668 182.786833 73.8970125 176.777389 73.9247621 146.849056 72.4473746 129.275167 79.770488 123.901833 76.2313069 143.912389"></polygon>
                            <path d="M91.2428846,187.065889 L91.607514,188.498111 C91.607514,188.498111 86.2041164,189.411444 85.5581063,189.550333 C84.9087662,189.688667 78.6284819,188.118667 78.6284819,188.118667 L78.4753042,188.095889 L78.3548711,188.943667 L73.0358321,188.697 L73.0358321,187.532 L73.0036426,187.527556 L72.9215039,185.342 L74.3533821,183.974222 L80.3400758,184.519778 L80.3733753,184.527556 L82.751514,184.742556 L87.9773144,187.051444 L91.2428846,187.065889 Z" id="Fill-156" fill="#232341" mask="url(#mask-2)"></path>
                            <polygon id="Fill-157" fill="#FFB875" mask="url(#mask-2)" points="14.4367174 151.396389 14.4367174 154.278056 14.9284399 156.046944 18.4415364 168.6775 18.2372995 172.381389 17.6201489 175.876944 22.862599 182.3975 27.0744298 184.550833 29.025225 184.134722 27.0744298 182.4525 23.3743012 172.586389 21.6077631 148.778056 21.5106396 147.481389 21.3202775 144.918056 16.5950795 143.270833 14.7619425 150.169167"></polygon>
                            <polygon id="Fill-158" fill="#F9A25A" mask="url(#mask-2)" points="14.7619425 150.169167 18.1229712 148.344722 21.5106396 147.481389 21.3202775 144.918056 16.5950795 143.270833"></polygon>
                            <polygon id="Fill-159" fill="#FFB875" mask="url(#mask-2)" points="0.817780034 148.147722 0.817780034 158.904944 3.05217597 171.129389 3.05217597 173.539944 3.82860914 178.8705 5.1167445 182.397167 7.61143147 183.093833 11.1350728 183.093833 10.1055635 180.656056 7.78125888 173.366611 7.26456176 156.581056 7.87116751 148.761056 8.29740102 143.271056 2.45278511 142.896611 1.46545516 146.062722"></polygon>
                            <polygon id="Fill-160" fill="#F9A25A" mask="url(#mask-2)" points="1.46545516 146.062722 7.05366497 147.762722 7.87116751 148.761056 8.29740102 143.271056 2.45278511 142.896611"></polygon>
                            <polygon id="Fill-161" fill="#2D2A48" mask="url(#mask-2)" points="18.237688 172.381111 16.0637861 175.160556 16.0637861 177.185556 17.1510146 178.385556 17.712666 184.085556 18.237688 184.085556 18.237688 179.735556 20.5597726 181.218333 22.1331736 184.640556 26.0292142 185.297778 30.2255052 185.297778 30.2255052 183.621667 27.0748183 182.451667 25.2794206 182.441667 19.809979 176.810556"></polygon>
                            <polygon id="Fill-162" fill="#2D2A48" mask="url(#mask-2)" points="12.3370734 185.652056 12.3276386 183.862611 10.1132223 180.6415 5.99130017 181.693722 3.85125279 178.734833 3.12310389 173.520944 3.05261997 171.237611 2.33335093 173.624278 2.34389577 175.657056 3.15473841 177.008167 3.12809882 180.099278 4.97178071 184.844833 8.8300819 186.379278 11.1727012 186.005944"></polygon>
                            <polygon id="Fill-163" fill="#2D2A48" mask="url(#mask-2)" points="2.33312893 183.344611 2.94361963 183.344611 3.37540305 178.482389 3.37540305 176.394056 2.44579222 174.5135 2.33312893 176.900722"></polygon>
                            <path d="M3.607889,109.854 C4.03856244,109.854 31.5739127,106.145111 31.5739127,106.145111 L33.6906504,84.6451111 L17.4582579,88.8712222 L3.607889,109.854 Z" id="Fill-164" fill="#EC1C24" mask="url(#mask-2)"></path>
                            <polygon id="Fill-165" fill="#D30D1C" mask="url(#mask-2)" points="3.607889 91.1989444 32.9586166 84.0495 31.5739127 106.145056 3.607889 109.853944"></polygon>
                            <path d="M3.607889,109.854 C3.93089408,109.663444 31.5739127,106.145111 31.5739127,106.145111 L30.3285117,83.204 L3.607889,90.2378889 L3.607889,109.854 Z" id="Fill-166" fill="#EC1C24" mask="url(#mask-2)"></path>
                            <polygon id="Fill-167" fill="#D30D1C" mask="url(#mask-2)" points="30.5396305 102.3035 22.2635966 106.4885 20.3488758 99.0262778 26.2983851 99.8473889 29.5128961 99.2318333"></polygon>
                            <polygon id="Fill-168" fill="#2E3191" mask="url(#mask-2)" points="25.2362978 86.4777778 25.2362978 84.9966667 18.6196887 74.3377778 10.7848731 69.0094444 6.43373942 69.5838889 6.94877157 71.9238889 12.6402098 73.5155556 16.5301455 80.8133333"></polygon>
                            <polygon id="Fill-169" fill="#FCFEFF" mask="url(#mask-2)" points="14.6892941 75.4963333 14.4739574 73.2863333 17.5358457 75.8546667 22.762756 83.7724444 19.3584379 82.8963333"></polygon>
                            <polygon id="Fill-170" fill="#FFB875" mask="url(#mask-2)" points="14.564643 79.7063889 14.564643 72.9363889 15.1296244 70.7830556 15.5308832 69.2463889 15.5935973 69.0108333 8.72668697 62.2936111 8.79606091 62.9352778 9.08021658 65.5047222 9.07633164 65.5502778 8.80660575 70.2108333 7.75656176 74.2336111"></polygon>
                            <path d="M9.08032758,65.5045 L9.07644264,65.5500556 C10.0088284,66.4622778 10.9195695,67.3950556 11.8830349,68.2717222 C12.9053293,69.1978333 13.9897827,70.0167222 15.1291804,70.7828333 L15.5309942,69.2461667 C14.3327675,68.3206111 13.2166795,67.3322778 12.1533157,66.2333889 C11.0721922,65.1161667 9.95665922,63.9961667 8.79617191,62.9350556 L9.08032758,65.5045 Z" id="Fill-171" fill="#F9A25A" mask="url(#mask-2)"></path>
                            <polygon id="Fill-172" fill="#2D2A48" mask="url(#mask-2)" points="-0.000110998308 146.000889 1.47228156 146.042 8.06835601 146.229222 15.7494389 146.451444 21.4453171 146.614222 22.6923831 146.649222 22.6923831 138.905333 25.2003898 113.796444 25.2353543 113.464222 20.7865421 107.595889 20.7732223 107.578111 20.7415878 107.537 19.8652562 106.378667 8.53288393 106.378667 7.75700575 107.412 6.84570964 109.364778 6.81796007 109.427 6.80408528 109.451444 5.93163858 111.327 5.3006132 112.679778 3.41919188 116.716444 2.58781455 139.799778"></polygon>
                            <polygon id="Fill-173" fill="#2D2A48" mask="url(#mask-2)" points="4.90212927 111.455556 4.46257597 112.631667 5.3006132 112.68 8.55008866 112.86 25.2003898 113.796667 26.108356 113.848889 24.5077604 107.096111 24.5038755 107.082778 24.4972156 107.051111 24.1370261 105.542778 23.5581699 103.097778 23.4788061 102.761667 23.5725997 102.258333 23.8317807 100.857778 24.074312 99.54 24.2507993 98.5827778 26.108356 88.5705556 25.1454457 86.8711111 24.7397469 86.1566667 24.6875777 86.0633333 24.012708 84.8672222 23.8251208 84.5405556 14.564532 75.285 13.1132291 73.835 12.6869956 73.5988889 12.4305895 73.4572222 8.52566904 71.2933333 6.57209882 70.2111111 5.56090423 71.7822222 4.56302944 73.3322222 2.0927621 76.585 6.31902267 89.5238889 6.43335093 89.8705556 6.56876887 90.4777778 8.53288393 99.3383333 8.53288393 101.756111 8.34585178 102.258333 7.98566227 103.222778 7.52779425 104.447222 5.62306328 109.534444 5.6025286 109.590556 5.59142876 109.611111"></polygon>
                            <polyline id="Fill-174" fill="#1D1C22" mask="url(#mask-2)" points="8.47599729 79.7807222 15.6198484 95.0696111 23.8309482 98.7685 9.5904203 99.2085"></polyline>
                            <polygon id="Fill-175" fill="#1D1C22" mask="url(#mask-2)" points="7.52807174 104.447056 9.90843046 105.948722 23.5584474 103.097611 23.4785286 102.7615 23.5723222 102.258722 23.8320582 100.857611 8.53316142 99.4876111 8.53316142 101.755944 8.34612927 102.258722 7.98538477 103.222611"></polygon>
                            <polygon id="Fill-176" fill="#FFB875" mask="url(#mask-2)" points="24.4590876 99.3423889 24.4590876 101.596278 26.1085225 102.810167 28.7935716 102.879056 30.539575 102.3035 32.2717036 100.385722 33.2618085 98.9262778 32.9510132 96.9062778 30.406932 97.9185 27.8056866 97.4207222 27.518756 96.7962778 27.8056866 95.2951667 27.5770301 93.9079444 26.8255716 93.9079444 26.1085225 96.7962778 25.2349658 99.1096111"></polygon>
                            <polygon id="Fill-177" fill="#2D2A48" mask="url(#mask-2)" points="5.12601286 73.4173333 2.09076413 76.5845556 1.80938342 81.4167778 6.12388765 97.6662222 5.95239526 100.667333 7.75500778 102.259 25.2361313 102.259 25.2361313 98.734 10.7996914 96.5101111 9.55706531 84.3234444 8.53199594 79.6451111"></polygon>
                            <polygon id="Fill-178" fill="#2E3191" mask="url(#mask-2)" points="26.1067465 86.4777778 13.483464 73.3333333 6.43396142 69.5838889 5.12584636 71.2655556 8.53182944 75.3422222 11.9250477 74.3377778 10.8716738 79.2444444 22.6929936 85.17 26.1067465 88.5688889"></polygon>
                            <polygon id="Fill-179" fill="#FFB875" mask="url(#mask-2)" points="6.43323993 57.7299444 7.41058003 58.8460556 8.8824176 60.5243889 9.57227208 63.0527222 9.60002166 63.1466111 10.4558186 66.2777222 15.3547289 69.9227222 16.0506883 70.4432778 17.973734 70.4432778 18.6835682 69.9577222 20.0693821 69.0110556 22.6922721 65.1821667 22.6922721 52.9888333 18.8467357 48.8238333 13.4283533 47.7593889 8.53277293 48.8238333 8.22475262 50.1343889"></polygon>
                            <polygon id="Fill-180" fill="#F9BE8F" mask="url(#mask-2)" points="6.43323993 57.7299444 7.41058003 58.8460556 8.8824176 60.5243889 9.57227208 63.0527222 9.60002166 63.1466111 10.4558186 66.2777222 15.3547289 69.9227222 16.0506883 70.4432778 11.8788169 62.5010556 11.2361367 51.3410556 9.83589306 50.7099444 8.51889814 50.7343889 8.35295567 50.7066111 8.22475262 50.1343889"></polygon>
                            <polygon id="Fill-181" fill="#51464F" mask="url(#mask-2)" points="22.6927716 52.9898333 18.1479459 50.4537222 13.2518105 50.2059444 10.8048528 51.5981667 9.40571912 54.7559444 8.88125212 60.5242778 10.4546531 66.2765 7.73352961 63.6098333 3.43623012 55.7881667 3.46175973 50.2059444 8.70642978 45.1037222 14.5638105 44.6070556 19.5459695 47.7581667"></polygon>
                            <polygon id="Fill-182" fill="#51464F" mask="url(#mask-2)" points="8.53182944 47.3143889 6.43396142 43.5066111 4.51036074 43.5066111 1.36355871 46.4571667 0.502211844 48.8238333 1.88802572 51.2999444 5.03482775 51.6255"></polygon>
                            <polygon id="Fill-183" fill="#FFB875" mask="url(#mask-2)" points="9.81957631 62.6431667 8.47483181 62.5876111 7.15783689 60.7070556 6.94083519 58.1159444 8.21676074 57.9231667 9.96553909 60.2131667"></polygon>
                            <polygon id="Fill-184" fill="#FFB875" mask="url(#mask-2)" points="32.600758 89.0873889 34.4960541 90.3273889 34.0010017 92.4968333 33.7529205 94.5407222 33.0103418 95.6562778 32.2672081 95.9662778 32.144 90.5135"></polygon>
                            <path d="M33.4153746,90.9357778 C33.1439838,90.9357778 32.143889,90.5135556 32.143889,90.5135556 L29.6131276,91.6424444 L29.9932968,92.7302222 L32.1660887,91.8602222 L33.2527621,92.6218889" id="Fill-185" fill="#FFB875" mask="url(#mask-2)"></path>
                            <path d="M33.551403,90.1594444 L32.3387465,87.0638889 L32.6417719,85.6683333 L33.551403,87.4883333 L34.4959986,90.3277778 C34.0675452,90.2294444 32.6007025,89.0872222 32.6007025,89.0872222 L30.210354,88.7611111 L30.1021306,89.5222222 L31.7321408,90.3927778 L33.0352609,91.2083333" id="Fill-186" fill="#FFB875" mask="url(#mask-2)"></path>
                            <path d="M246.005883,61.6964444 L248.310208,59.4997778 L254.423995,58.1903333 L258.369984,58.4953333 L259.941165,60.1081111 L258.103588,69.1281111 L252.584753,79.8836667 C252.584753,79.8836667 253.175819,109.705333 253.003771,109.268667 C252.832279,108.832 243.358018,109.834778 243.429057,109.268667 C243.500096,108.702 246.005883,61.6964444 246.005883,61.6964444" id="Fill-187" fill="#CDCDCD" mask="url(#mask-2)"></path>
                            <polygon id="Fill-188" fill="#FFB875" mask="url(#mask-2)" points="249.082701 58.4900556 250.349191 60.7145 255.294721 61.0417222 258.198437 58.1911667 258.198437 51.7550556 249.47286 51.4195 249.265293 55.1828333"></polygon>
                            <polygon id="Fill-189" fill="#F9A25A" mask="url(#mask-2)" points="249.265348 55.1827222 250.981382 57.0716111 256.935886 57.0716111 258.198492 55.7560556 258.198492 51.7549444 249.472915 51.4199444"></polygon>
                            <polygon id="Fill-190" fill="#FEFFFF" mask="url(#mask-2)" points="254.715532 64.1204444 253.003938 59.9076667 258.199214 57.151 258.505569 58.1904444"></polygon>
                            <polygon id="Fill-191" fill="#FD1717" mask="url(#mask-2)" points="253.000719 62.5574444 252.522871 94.2902222 247.511297 96.7124444 242.981457 93.1402222 251.169247 62.3563333"></polygon>
                            <polygon id="Fill-192" fill="#FB0909" mask="url(#mask-2)" points="251.810539 59.7775 253.003771 59.9075 253.642012 61.1875 253.000996 62.5575 251.169524 62.3563889 250.7999 61.3452778"></polygon>
                            <polygon id="Fill-193" fill="#1D1C22" mask="url(#mask-2)" points="243.429279 185.902222 248.481367 185.902222 248.481367 182.372222 243.429279 182.372222"></polygon>
                            <polygon id="Fill-194" fill="#1D1C22" mask="url(#mask-2)" points="259.876453 186.742222 264.264217 186.742222 264.264217 183.212778 259.876453 183.212778"></polygon>
                            <path d="M236.866948,116.917222 L236.886928,117.164444 L237.251557,121.504444 L238.114569,131.697778 L241.64043,164.151667 L241.519442,173.801111 L242.62887,182.642778 L243.428613,182.679444 L245.439903,182.771111 L247.59327,182.87 L248.481811,182.91 L249.087862,182.939444 L249.18998,182.942778 L250.302183,153.510556 L248.698813,125.663333 L248.311429,119.045556 L250.302183,119.837222 L251.075842,124.928889 L257.216268,168.225556 L259.151524,184.219444 L259.875787,184.248333 L264.260776,184.406667 L265.476207,184.452778 L264.569906,171.102778 L265.661019,161.742778 L264.459463,142.378333 L266.033974,119.072778 L266.038969,118.947222 L264.93287,115.625556 L260.485723,112.34 L253.640458,107.297778 L253.031632,107.215 L249.614549,106.77 L248.148816,106.576667 L247.754217,106.523333 L247.724803,106.52 L244.820532,106.141111 L243.546826,107.379444 L243.540721,107.383333 L239.958251,110.863889 L237.605087,113.150556 C237.605087,113.78 236.866948,116.917222 236.866948,116.917222" id="Fill-195" fill="#1D1C22" mask="url(#mask-2)"></path>
                            <path d="M236.865838,116.918833 L237.253222,121.504389 L246.184701,114.727722 L250.148451,105.531056 L248.150481,106.576611 L239.959916,110.862722 L237.603977,113.1505 C237.603977,113.779944 236.865838,116.918833 236.865838,116.918833" id="Fill-196" fill="#151418" mask="url(#mask-2)"></path>
                            <polygon id="Fill-197" fill="#232341" mask="url(#mask-2)" points="247.726135 89.1318333 247.726135 107.131833 248.445404 109.300167 248.480923 109.401833 249.841762 113.495167 264.726636 118.681833 266.030866 119.072944 268.185898 119.716833 268.559962 118.805167 265.321031 102.419611 265.321031 102.409056 265.493079 97.4973889 265.668456 92.4818333 266.038081 89.9273889 270.499103 63.8329444 259.798311 58.6346111 258.504625 58.1912778 258.366987 58.4968333 252.865356 72.6229444 252.865356 72.6301667 249.02648 81.2662778 248.980416 81.3679444 248.934351 81.4746111 248.934351 81.4812778 248.924361 81.4951667 248.919921 81.5023889 248.780064 81.8151667 248.210087 85.7812778 248.207312 85.7957222 248.193438 85.8901667"></polygon>
                            <path d="M263.193249,81.8152222 C263.193249,81.8152222 264.518014,73.0618889 264.518014,73.278 C264.518014,73.4946667 260.407747,81.6513333 260.407747,81.6513333 L263.193249,81.8152222 Z" id="Fill-198" fill="#262627" mask="url(#mask-2)"></path>
                            <polygon id="Fill-199" fill="#262627" mask="url(#mask-2)" points="250.191074 90.5603333 265.492746 97.497 265.668678 92.482 266.038303 89.927 265.975034 88.5092222"></polygon>
                            <polygon id="Fill-200" fill="#2E3191" mask="url(#mask-2)" points="247.942359 102.080556 251.268979 84.7 259.941831 67.5027778 258.198048 63.8077778 261.489148 62.5588889 259.798089 58.635 258.41394 58.0461111 248.980194 81.3683333"></polygon>
                            <polygon id="Fill-201" fill="#FFB875" mask="url(#mask-2)" points="264.888083 81.8152222 261.893348 80.8835556 250.30235 81.3496667 249.186817 82.6413333 249.247866 85.6113333 257.900184 88.5163333"></polygon>
                            <polygon id="Fill-202" fill="#232341" mask="url(#mask-2)" points="237.942799 63.4547778 235.349879 65.9603333 232.568261 72.8453333 232.153128 75.8636667 230.572512 83.3275556 235.886556 85.5342222 237.792397 79.0514444"></polygon>
                            <polygon id="Fill-203" fill="#232341" mask="url(#mask-2)" points="233.79335 117.084333 234.704091 117.943222 245.712348 114.029889 247.725857 107.132111 248.948504 81.9776667 248.308598 59.4482222 247.668138 59.6137778 237.621681 63.5898889 237.051705 84.2787778 237.290906 88.456 237.558412 93.1548889 237.920267 99.5515556"></polygon>
                            <polygon id="Fill-204" fill="#262627" mask="url(#mask-2)" points="237.290795 88.4558889 237.558301 93.1547778 246.758396 90.0753333 237.821922 88.1708889"></polygon>
                            <polygon id="Fill-205" fill="#262627" mask="url(#mask-2)" points="238.848435 78.9810556 240.290858 70.7521667 240.687121 80.3905"></polygon>
                            <polygon id="Fill-206" fill="#2E3191" mask="url(#mask-2)" points="244.132786 68.4255 246.535345 85.5343889 247.836245 104.599944 248.948448 80.9116111 248.51833 59.0671667 247.670303 59.6121667 244.58899 62.7066111 246.684083 64.4277222"></polygon>
                            <polygon id="Fill-207" fill="#FFB875" mask="url(#mask-2)" points="242.34638 81.8152222 235.885168 74.7374444 231.998007 73.8246667 230.572234 74.7374444 229.015483 78.583 229.015483 80.1391111 229.015483 81.8152222 237.05176 84.2791111"></polygon>
                            <polygon id="Fill-208" fill="#232341" mask="url(#mask-2)" points="266.633253 63.0397222 270.501545 63.8336111 273.505159 66.9736111 271.982262 88.7786111 269.520319 91.2419444 263.690688 93.1175 237.672685 88.2330556 249.13326 85.5663889 255.457944 86.3152778 263.193416 81.8152778 263.896035 76.3363889"></polygon>
                            <polygon id="Fill-209" fill="#232341" mask="url(#mask-2)" points="250.769375 81.2575 235.148028 81.3419444 229.015927 80.1391667 227.718357 83.8497222 227.739446 87.3430556 230.987812 89.5319444 232.372516 89.5230556 249.249253 85.5513889"></polygon>
                            <polygon id="Fill-210" fill="#FEFFFF" mask="url(#mask-2)" points="248.310374 59.4997222 249.186706 57.6802778 251.810706 59.7775 249.507491 63.7941667"></polygon>
                            <polygon id="Fill-211" fill="#51464F" mask="url(#mask-2)" points="244.233573 37.1369444 244.948957 41.5686111 245.822514 47.3725 259.258304 50.3930556 260.152395 49.4980556 262.211414 43.8541667 262.899048 34.8919444 260.533119 29.9797222 251.507847 28.1819444 244.958947 32.0275"></polygon>
                            <polygon id="Fill-212" fill="#FFB875" mask="url(#mask-2)" points="246.284433 43.5931111 245.474146 42.2836667 244.691607 42.5425556 245.305983 45.0031111 245.48691 47.2514444 246.407641 47.8764444"></polygon>
                            <polygon id="Fill-213" fill="#FFB875" mask="url(#mask-2)" points="261.283857 43.5931111 262.095254 42.2836667 262.878902 42.5425556 262.262862 45.0031111 262.119119 47.0197778 261.277752 47.5814444"></polygon>
                            <polygon id="Fill-214" fill="#FFB875" mask="url(#mask-2)" points="245.502894 38.0196667 245.77817 41.6757778 245.886393 43.8152222 246.224383 50.453 251.487368 56.5585556 256.703733 56.5585556 261.403957 50.4946667 261.54104 43.1963333 261.559909 42.3235556 261.643158 39.698 260.940539 35.9891111 255.758583 35.7135556 247.532498 35.2807778 245.876403 37.5163333"></polygon>
                            <path d="M259.12838,37.6746111 C254.419832,37.6390556 249.835602,38.2090556 245.219182,39.0762778 L245.130384,37.6540556 L245.876292,37.5162778 L255.758472,35.7135 L260.940983,35.9890556 L261.298397,37.8751667 C260.572468,37.7579444 259.847094,37.6807222 259.12838,37.6746111" id="Fill-215" fill="#F9BE8F" mask="url(#mask-2)"></path>
                            <polygon id="Fill-216" fill="#51464F" mask="url(#mask-2)" points="244.532214 37.5362778 244.532214 37.9779444 245.476809 39.8262778 246.752735 38.1857222 253.64018 38.2301667 260.932214 33.2318333 246.78437 32.4223889"></polygon>
                            <polygon id="Fill-217" fill="#151418" mask="url(#mask-2)" points="249.220394 184.194778 242.688143 184.194778 238.041754 186.818667 233.06015 188.016444 233.06015 189.549222 238.446898 189.970333 243.88637 189.197 245.23278 188.144778 245.166181 189.197 249.49012 189.163111"></polygon>
                            <polygon id="Fill-218" fill="#151418" mask="url(#mask-2)" points="268.451572 187.729944 268.451572 189.3555 265.814252 190.439389 261.412615 190.439389 256.77233 189.277722 256.77233 187.187722 259.876398 184.977167 264.848012 184.977167 264.858557 185.0555"></polygon>
                            <polygon id="Fill-219" fill="#F9BE8F" mask="url(#mask-2)" points="245.886615 43.815 246.22405 50.4527778 251.48759 56.5583333 251.50202 56.5583333 249.068382 52.4972222 247.416172 49.9205556 245.932125 43.2483333"></polygon>
                            <polygon id="Fill-220" fill="#F9BE8F" mask="url(#mask-2)" points="256.700292 56.5586111 256.703622 56.5586111 261.404401 50.4947222 261.541484 43.1963889 260.055216 50.2947222 259.348712 51.4980556 258.750431 52.5186111"></polygon>
                            <polygon id="Fill-221" fill="#151418" mask="url(#mask-2)" points="245.913754 155.175167 245.439792 182.771278 247.593159 182.870167 248.4817 182.910167 249.087751 182.939611 250.186634 153.797944 248.584374 125.950722 248.19477 119.330167 241.648089 117.117944"></polygon>
                            <polygon id="Fill-222" fill="#FFB875" mask="url(#mask-2)" points="133.175659 154.353222 133.556938 157.567111 134.366671 159.537667 140.002055 173.250444 140.205737 177.141556 139.917141 180.771 146.514881 187.466556 151.385486 189.640444 153.485574 189.226556 151.179584 187.535444 146.040918 177.412667 141.30129 151.644333 141.031009 150.181556 140.495442 147.273222 134.666921 145.213222 133.39821 152.986"></polygon>
                            <polygon id="Fill-223" fill="#F9A25A" mask="url(#mask-2)" points="133.398432 152.986 137.13963 151.041 141.031231 150.181556 140.495664 147.273222 134.666588 145.213222"></polygon>
                            <polygon id="Fill-224" fill="#FFB875" mask="url(#mask-2)" points="126.339051 188.115167 122.312032 188.105722 119.446056 187.385722 118.038043 183.722389 117.22942 178.127944 117.280479 175.570722 114.836851 162.244611 115.002239 150.145167 115.839721 147.7835 115.851931 147.726278 117.110097 144.167944 124.243403 144.836278 123.636242 150.434056 123.559098 151.090167 122.613948 159.836278 122.756581 177.992944 125.248493 185.611833"></polygon>
                            <polygon id="Fill-225" fill="#F9A25A" mask="url(#mask-2)" points="124.243237 144.836056 123.636076 150.433833 123.283656 150.036056 115.852319 147.726056 117.10993 144.167722"></polygon>
                            <polygon id="Fill-226" fill="#2D2A48" mask="url(#mask-2)" points="140.206292 177.140722 138.069019 180.014056 138.312106 182.110167 139.68127 183.3535 140.970515 189.1585 141.556586 189.159056 141.059869 184.742944 143.825392 186.264056 145.944349 189.7235 150.309358 190.385722 154.906353 190.389611 154.752065 188.716833 151.179029 187.534056 149.197155 187.519056 142.494522 181.751833"></polygon>
                            <polygon id="Fill-227" fill="#2D2A48" mask="url(#mask-2)" points="127.633347 190.726889 127.682741 188.907444 125.251878 185.597444 120.478951 186.664667 118.064183 183.585778 117.315499 178.105222 117.27665 175.680222 116.386443 178.206333 116.362579 180.351889 117.28553 181.778 117.196731 185.000778 119.232995 189.898 123.617428 191.464111 126.298592 191.085778"></polygon>
                            <polygon id="Fill-228" fill="#2D2A48" mask="url(#mask-2)" points="116.216449 188.353333 116.921844 188.355 117.515685 183.32 117.555644 181.135556 116.502825 179.148333 116.328558 181.658889"></polygon>
                            <polygon id="Fill-229" fill="#232341" mask="url(#mask-2)" points="114.29074 147.6665 116.098347 147.768722 124.1374 148.224278 131.96944 148.752611 138.744222 149.138167 141.651823 148.884833 141.685677 140.670389 142.550909 110.363167 142.586983 109.950389 136.882225 102.198722 136.864466 102.174833 136.823951 102.120389 135.681224 100.564833 121.19539 102.474278 120.252459 100.923722 119.191315 103.375944 119.159126 103.454833 119.142476 103.485389 118.131281 105.829278 115.711518 108.092056 113.554821 113.353722 117.079017 140.5565"></polygon>
                            <path d="M135.036268,42.7619444 L137.441046,48.9769444 L137.308958,55.7297222 L139.292498,59.7013889 L138.920654,65.2869444 L136.936559,68.6380556 L134.359178,67.3802778 L129.423084,68.3291667 C129.423084,68.3291667 123.247693,69.3825 122.475145,69.0591667 C121.703706,68.7363889 117.270434,67.8708333 117.270434,67.8708333 L116.129926,65.6341667 L116.314738,60.7775 C116.314738,60.7775 118.661798,57.0152778 118.251659,56.1819444 C117.84152,55.3497222 117.093947,51.8319444 117.093947,51.8319444 L117.817101,47.1175 L120.928938,42.1486111 L122.821459,40.6386111 L130.827212,41.3463889 L135.036268,42.7619444 Z" id="Fill-230" fill="#51464F" mask="url(#mask-2)"></path>
                            <path d="M134.311671,67.2823333 L131.4185,64.2695556 L126.323123,64.0712222 L122.775062,64.0417778 L120.538446,65.1423333 L122.498121,74.0928889 L124.935644,86.0145556 C124.935644,86.0145556 126.366967,105.336222 126.550114,104.902889 C126.733817,104.469556 140.041404,105.540667 139.97758,104.976778 C139.913756,104.412333 134.311671,67.2823333 134.311671,67.2823333" id="Fill-231" fill="#FCFEFF" mask="url(#mask-2)"></path>
                            <polygon id="Fill-232" fill="#FFB875" mask="url(#mask-2)" points="130.819664 65.2462222 129.718006 66.6751111 125.22424 66.6751111 122.992064 64.5673333 123.430507 61.1023333 123.910575 57.2834444 128.035827 56.6751111 130.183644 56.3495556 130.198074 56.5901111 130.353471 60.4378889 130.396206 60.8762222"></polygon>
                            <polygon id="Fill-233" fill="#F9A25A" mask="url(#mask-2)" points="130.396372 60.8761111 129.633259 61.6538889 123.95292 61.64 123.430118 61.1022222 123.910186 57.2833333 128.035993 56.675 130.19824 56.59 130.353638 60.4377778"></polygon>
                            <polygon id="Fill-234" fill="#2D2A48" mask="url(#mask-2)" points="132.13344 93.0462222 132.953718 103.001778 132.187829 105.149 132.291058 105.162333 126.21945 107.620667 113.980222 111.484 113.405806 110.448444 118.02611 100.891222 118.934076 94.874 114.071796 93.7345556 114.394246 67.5034444 120.896527 64.7567778 121.303335 66.2967778 121.711254 69.3306667 125.284845 85.4984444 127.682408 86.5395556 131.015132 85.5112222 131.058422 85.6078889 131.100601 85.7084444 131.100601 85.7151111 131.110036 85.7284444 131.113921 85.7356667 131.244899 86.0334444 131.723302 89.8217778 131.726076 89.8362222 131.737731 89.9273333"></polygon>
                            <path d="M117.154607,85.9797222 C117.154607,85.9797222 116.171162,77.7330556 116.163392,77.9352778 C116.155622,78.1369444 119.879616,85.8336111 119.879616,85.8336111 L117.154607,85.9797222 Z" id="Fill-235" fill="#1D1C22" mask="url(#mask-2)"></path>
                            <polygon id="Fill-236" fill="#1D1C22" mask="url(#mask-2)" points="129.671165 94.4166667 118.026332 100.891111 118.647923 94.8738889 114.072018 93.7344444 114.188011 92.3677778"></polygon>
                            <polygon id="Fill-237" fill="#2E3191" mask="url(#mask-2)" points="125.466493 89.6196111 123.267617 78.8040556 118.15226 69.3396111 120.389986 67.3912778 117.430216 66.7262778 119.646852 64.6685 121.058196 64.3623889 126.186872 76.7168333"></polygon>
                            <polygon id="Fill-238" fill="#FFB875" mask="url(#mask-2)" points="115.4994 85.9737778 118.45473 85.1004444 129.765458 85.5854444 130.829377 86.8187778 130.706724 89.6554444 122.127109 92.4093333"></polygon>
                            <polygon id="Fill-239" fill="#2D2A48" mask="url(#mask-2)" points="138.678955 67.1727778 141.142562 69.475 144.55132 77.9016667 147.564925 80.4616667 149.086156 87.5444444 143.847036 89.635 141.354569 83.6611111"></polygon>
                            <polygon id="Fill-240" fill="#2D2A48" mask="url(#mask-2)" points="144.226706 109.698278 143.824337 110.676611 132.317697 106.928833 131.766591 104.919944 131.497975 103.901611 130.452926 100.068833 130.777596 94.2416111 130.946868 89.6593889 130.946868 89.6443889 131.074516 86.1932778 131.102821 85.7127222 131.102821 85.5149444 135.418435 86.0871667 133.247308 69.1049444 132.14787 65.2749444 132.14787 65.2321667 132.346002 65.2749444 132.755586 65.3738333 134.083681 65.7838333 137.347586 66.7882778 138.675681 67.1982778 138.732845 67.2121667 138.987031 67.2977222 139.02921 67.4955 141.64322 81.7666111 142.349725 85.6132778 142.504567 86.3916111 142.518997 86.5049444 141.812493 88.0182778 140.04651 91.7521667 140.03208 91.7943889 139.636371 92.6288333 139.622496 92.6571667 139.523708 92.8699444 139.410489 96.0799444 139.241217 98.5555"></polygon>
                            <polygon id="Fill-241" fill="#1D1C22" mask="url(#mask-2)" points="142.137884 92.2758333 141.954182 92.2330556 139.622663 92.6575 139.523874 92.8697222 139.410656 96.0802778 138.294013 95.7130556 133.065993 93.9586111 137.913289 92.9686111 138.44941 92.8697222 139.636537 92.6291667 141.75605 92.1908333 141.869268 92.1763889 141.911448 92.1625 141.982487 92.2047222 142.024666 92.2186111"></polygon>
                            <polygon id="Fill-242" fill="#1D1C22" mask="url(#mask-2)" points="141.003537 83.3798889 139.693757 75.6515556 139.188715 84.7098889"></polygon>
                            <polygon id="Fill-243" fill="#2E3191" mask="url(#mask-2)" points="137.091513 69.5485 135.785063 77.7635 135.65353 87.0929444 133.174382 75.5212778 132.336345 65.1023889 133.179377 65.3612778 136.313415 66.8307222 134.402579 67.6418333"></polygon>
                            <polygon id="Fill-244" fill="#FFB875" mask="url(#mask-2)" points="137.544053 86.0578333 143.93367 79.3900556 147.724818 78.5467222 149.110631 79.4072778 150.621318 83.0378333 150.620208 84.5139444 150.617988 86.1072778 142.711024 88.4283889"></polygon>
                            <polygon id="Fill-245" fill="#2D2A48" mask="url(#mask-2)" points="142.066901 92.2188889 142.024721 92.2188889 141.954238 92.2327778 139.622718 92.6572222 138.449466 92.87 137.913344 92.9544444 137.913344 92.9688889 132.119787 94.0011111 130.777263 94.2416667 129.618441 94.4394444 127.047165 94.9066667 116.266454 96.83 114.344518 96.2077778 113.412133 94.9911111 111.094488 92.6005556 111.391963 70.3805556 114.387253 67.5094444 114.415557 67.5094444 116.18154 67.1561111 117.87704 66.8305556 118.117351 66.7883333 118.102921 66.8872222 117.848735 69.405 116.803131 79.3905556 116.662163 80.805 117.100051 85.4583333 117.113926 85.5005556 117.142231 85.8966667 117.156106 85.9811111 124.588552 90.3094444 127.287476 90.0122222 130.706779 89.6305556 130.777263 89.6161111 130.819442 89.6161111 130.94709 89.6444444 131.724079 89.8283333 137.658603 91.2005556 140.046177 91.7522222 141.869324 92.1766667 141.982542 92.205"></polygon>
                            <polygon id="Fill-246" fill="#2D2A48" mask="url(#mask-2)" points="151.887143 88.0608889 151.873268 91.4125556 148.651542 93.5064444 147.295143 93.492 142.138162 92.2758889 141.95446 92.2331111 141.756328 92.1908889 140.032524 91.7947778 137.6727 91.2286667 131.724301 89.8425556 130.947312 89.6592222 130.777485 89.6164444 130.707001 89.602 129.336172 85.5714444 129.307867 85.5008889 131.017241 85.5147778 131.10271 85.5147778 135.327306 85.557 136.867407 85.557 138.0118 85.5714444 142.165356 85.6136667 142.349614 85.6136667 144.610649 85.6281111 148.523894 84.9064444 150.615658 84.5103333"></polygon>
                            <polygon id="Fill-247" fill="#51464F" mask="url(#mask-2)" points="136.385286 43.9403333 135.646037 47.8203333 134.728081 52.9536667 121.932751 55.627 121.111364 54.827 119.339831 49.8175556 118.975201 41.9781111 121.325591 37.7392222 129.755357 36.197 135.78312 39.5064444"></polygon>
                            <polygon id="Fill-248" fill="#FFB875" mask="url(#mask-2)" points="134.354461 49.6038889 135.140329 48.45 135.873473 48.6788889 135.255212 50.8511111 135.04709 52.8461111 134.165209 53.4005556"></polygon>
                            <polygon id="Fill-249" fill="#FFB875" mask="url(#mask-2)" points="120.220047 49.5892222 119.497448 48.4347778 118.753205 48.662 119.255472 50.8325556 119.328176 52.6192222 120.104609 53.1192222"></polygon>
                            <polygon id="Fill-250" fill="#FFB875" mask="url(#mask-2)" points="135.1799 44.7102222 134.863555 47.9152222 134.725917 49.8007778 134.295243 55.6996667 129.166012 61.1835556 124.188847 61.1741111 119.895988 55.7152222 119.990336 49.2385556 119.999771 48.4707778 120.000881 46.1668889 120.770099 42.9324444 125.621281 42.6963333 133.325118 42.3235556 134.83858 44.2707778"></polygon>
                            <path d="M122.416759,44.4009444 C126.827832,44.3720556 131.112367,44.8731667 135.430201,45.6342778 L135.535649,44.3909444 L134.83858,44.2709444 L125.621281,42.6965 L120.770099,42.9320556 L120.37994,44.5742778 C121.063135,44.4726111 121.744665,44.4059444 122.416759,44.4009444" id="Fill-251" fill="#F9BE8F" mask="url(#mask-2)"></path>
                            <polygon id="Fill-252" fill="#F9BE8F" mask="url(#mask-2)" points="134.72575 49.8007778 134.295632 55.6996667 129.165845 61.1835556 129.15308 61.1835556 131.555084 57.5274444 133.173439 55.223 134.691896 49.3002222"></polygon>
                            <polygon id="Fill-253" fill="#F9BE8F" mask="url(#mask-2)" points="124.192288 61.1739444 124.188958 61.1739444 119.896099 55.7150556 119.990447 49.2389444 121.180904 55.5378333 121.815815 56.6156111 122.353601 57.5306111"></polygon>
                            <polygon id="Fill-254" fill="#FFB875" mask="url(#mask-2)" points="124.87515 55.6552778 129.052016 55.6619444 128.238954 56.7280556 125.730947 56.6775"></polygon>
                            <polygon id="Fill-255" fill="#51464F" mask="url(#mask-2)" points="136.099632 44.2886667 136.092417 44.6742222 135.176126 46.2914444 134.005094 44.8542222 127.543882 44.8892222 120.859564 40.542 134.074468 39.8464444"></polygon>
                            <path d="M122.636758,64.2137778 L129.003066,74.2093333 L131.423384,64.3543333 L130.469354,63.7348889 C130.469354,63.7348889 125.292393,63.1382222 125.054301,63.0793333 C124.816765,63.0198889 122.636758,64.2137778 122.636758,64.2137778" id="Fill-256" fill="#FFB875" mask="url(#mask-2)"></path>
                        </g>
                    </g>
                </g>
            </g>
        </g>
    </g>
</svg>