<?xml version="1.0" encoding="UTF-8"?>
<svg width="288px" height="288px" viewBox="0 0 288 288" version="1.1" xmlns="http://www.w3.org/2000/svg" xmlns:xlink="http://www.w3.org/1999/xlink">
    <!-- Generator: Sketch 52.4 (67378) - http://www.bohemiancoding.com/sketch -->
    <title>undraw_live_collaboration_2r4y</title>
    <desc>Created with Sketch.</desc>
    <defs>
        <circle id="path-1" cx="143.36" cy="143.36" r="143.36"></circle>
        <linearGradient x1="50.003653%" y1="100.013831%" x2="50.003653%" y2="0.00485949042%" id="linearGradient-3">
            <stop stop-color="#E99B74" offset="0%"></stop>
            <stop stop-color="#808080" stop-opacity="0.12" offset="54%"></stop>
            <stop stop-color="#808080" stop-opacity="0.1" offset="100%"></stop>
        </linearGradient>
        <linearGradient x1="41134%" y1="29504%" x2="41134%" y2="14570%" id="linearGradient-4">
            <stop stop-color="#808080" stop-opacity="0.25" offset="0%"></stop>
            <stop stop-color="#808080" stop-opacity="0.12" offset="54%"></stop>
            <stop stop-color="#808080" stop-opacity="0.1" offset="100%"></stop>
        </linearGradient>
        <linearGradient x1="54552%" y1="65439%" x2="54552%" y2="7243%" id="linearGradient-5">
            <stop stop-color="#808080" stop-opacity="0.25" offset="0%"></stop>
            <stop stop-color="#808080" stop-opacity="0.12" offset="54%"></stop>
            <stop stop-color="#808080" stop-opacity="0.1" offset="100%"></stop>
        </linearGradient>
        <linearGradient x1="72588%" y1="60013%" x2="72588%" y2="32286%" id="linearGradient-6">
            <stop stop-color="#808080" stop-opacity="0.25" offset="0%"></stop>
            <stop stop-color="#808080" stop-opacity="0.12" offset="54%"></stop>
            <stop stop-color="#808080" stop-opacity="0.1" offset="100%"></stop>
        </linearGradient>
        <linearGradient x1="63794%" y1="82757%" x2="63794%" y2="75857%" id="linearGradient-7">
            <stop stop-color="#808080" stop-opacity="0.25" offset="0%"></stop>
            <stop stop-color="#808080" stop-opacity="0.12" offset="54%"></stop>
            <stop stop-color="#808080" stop-opacity="0.1" offset="100%"></stop>
        </linearGradient>
        <linearGradient x1="49.9964552%" y1="99.9928459%" x2="49.9964552%" y2="-0.00802762243%" id="linearGradient-8">
            <stop stop-color="#FFFFFF" stop-opacity="0.12" offset="0%"></stop>
            <stop stop-color="#FFFFFF" stop-opacity="0.09" offset="55%"></stop>
            <stop stop-color="#FFFFFF" stop-opacity="0.02" offset="100%"></stop>
        </linearGradient>
        <linearGradient x1="54465%" y1="33986%" x2="54465%" y2="21200%" id="linearGradient-9">
            <stop stop-color="#808080" stop-opacity="0.25" offset="0%"></stop>
            <stop stop-color="#808080" stop-opacity="0.12" offset="54%"></stop>
            <stop stop-color="#808080" stop-opacity="0.1" offset="100%"></stop>
        </linearGradient>
        <linearGradient x1="55134%" y1="29195%" x2="55134%" y2="21712%" id="linearGradient-10">
            <stop stop-color="#FFFFFF" stop-opacity="0.12" offset="0%"></stop>
            <stop stop-color="#FFFFFF" stop-opacity="0.09" offset="55%"></stop>
            <stop stop-color="#FFFFFF" stop-opacity="0.02" offset="100%"></stop>
        </linearGradient>
        <linearGradient x1="39605%" y1="39986%" x2="39605%" y2="26283%" id="linearGradient-11">
            <stop stop-color="#808080" stop-opacity="0.25" offset="0%"></stop>
            <stop stop-color="#808080" stop-opacity="0.12" offset="54%"></stop>
            <stop stop-color="#808080" stop-opacity="0.1" offset="100%"></stop>
        </linearGradient>
        <linearGradient x1="38687%" y1="50140%" x2="38687%" y2="37800%" id="linearGradient-12">
            <stop stop-color="#808080" stop-opacity="0.25" offset="0%"></stop>
            <stop stop-color="#808080" stop-opacity="0.12" offset="54%"></stop>
            <stop stop-color="#808080" stop-opacity="0.1" offset="100%"></stop>
        </linearGradient>
        <linearGradient x1="38207%" y1="60369%" x2="38207%" y2="49416%" id="linearGradient-13">
            <stop stop-color="#808080" stop-opacity="0.25" offset="0%"></stop>
            <stop stop-color="#808080" stop-opacity="0.12" offset="54%"></stop>
            <stop stop-color="#808080" stop-opacity="0.1" offset="100%"></stop>
        </linearGradient>
        <linearGradient x1="34718%" y1="38457%" x2="34718%" y2="32357%" id="linearGradient-14">
            <stop stop-color="#FFFFFF" stop-opacity="0.12" offset="0%"></stop>
            <stop stop-color="#FFFFFF" stop-opacity="0.09" offset="55%"></stop>
            <stop stop-color="#FFFFFF" stop-opacity="0.02" offset="100%"></stop>
        </linearGradient>
        <linearGradient x1="95880%" y1="33416%" x2="95880%" y2="26901%" id="linearGradient-15">
            <stop stop-color="#808080" stop-opacity="0.25" offset="0%"></stop>
            <stop stop-color="#808080" stop-opacity="0.12" offset="54%"></stop>
            <stop stop-color="#808080" stop-opacity="0.1" offset="100%"></stop>
        </linearGradient>
    </defs>
    <g id="Page-1" stroke="none" stroke-width="1" fill="none" fill-rule="evenodd">
        <g id="landing-copy-3" transform="translate(-241.000000, -274.000000)">
            <g id="undraw_live_collaboration_2r4y" transform="translate(241.664000, 274.432000)">
                <mask id="mask-2" fill="white">
                    <use xlink:href="#path-1"></use>
                </mask>
                <use id="Mask" fill="#DDE3E9" xlink:href="#path-1"></use>
                <g id="undraw_mail_2_tqip" mask="url(#mask-2)">
                    <g transform="translate(18.432000, 51.200000)">
                        <path d="M6.0775366,139.744982 C6.0775366,139.744982 5.86732679,139.121913 5.52728151,137.963005" id="Shape" stroke="#69F0AE" stroke-width="2.78218868" fill="none"></path>
                        <path d="M4.53187623,134.349206 C-2.98312453,105.189587 -26.4122445,-29.2001185 208.453941,54.6960931" id="Shape" stroke="#646169" stroke-width="4.096" fill="none" stroke-dasharray="3.721950439453125"></path>
                        <path d="M210.212903,55.3191619 L211.959499,55.9374261" id="Shape" stroke="#69F0AE" stroke-width="2.78218868" fill="none"></path>
                        <path d="M183.191668,158.963539 C183.194831,145.906165 173.337227,134.991266 160.437453,133.76878 C147.537678,132.546294 135.833758,141.417849 133.421404,154.246908 L56.2651291,152.13782 L57.1121509,165.496415 C57.1121509,165.496415 46.1101404,191.079619 103.933295,197.895992 L103.933295,223.753346 L170.780015,223.753346 L170.780015,180.7616 C178.46129,176.228873 183.184362,167.933942 183.191668,158.963539 Z" id="Shape" stroke="none" fill="url(#linearGradient-3)" fill-rule="nonzero"></path>
                        <path d="M59.7614128,166.057177 C59.7614128,166.057177 49.2261917,190.556241 104.60102,197.092233 L104.60102,221.865448 L168.619182,221.865448 L168.619182,156.256305 L58.9391215,153.262459 L59.7614128,166.057177 Z" id="Shape" stroke="none" fill="#FDAD80" fill-rule="nonzero"></path>
                        <path d="M91.7565826,63.8209354 C88.2816203,69.3469956 81.0305882,71.0075109 75.5271487,67.5375407 L41.1547532,44.7114159 C35.6713059,41.209449 34.0235952,33.902068 37.4668075,28.3558603 C40.9412629,22.8373864 48.183015,21.1777317 53.6838762,24.639255 L88.0562717,47.4653799 C93.5440797,50.9632497 95.1975103,58.2714938 91.7565826,63.8209354 Z" id="Shape" stroke="none" fill="url(#linearGradient-4)" fill-rule="nonzero"></path>
                        <path d="M89.8523291,62.5716825 C86.6222658,67.7082552 79.8823484,69.2518319 74.7666838,66.0265989 L42.8055185,44.8079915 C37.7085552,41.5528269 36.1768813,34.7605325 39.3772438,29.6051132 C42.6073071,24.4685406 49.3472245,22.9249638 54.4628891,26.1501968 L86.4178717,47.3719196 C91.5151323,50.6249097 93.0494517,57.4152959 89.8523291,62.5716825 Z" id="Shape" stroke="none" fill="#FDAD80" fill-rule="nonzero"></path>
                        <ellipse id="Oval" stroke="none" fill="#E99B74" fill-rule="nonzero" cx="156.464109" cy="159.798451" rx="24.0412015" ry="24.2280296"></ellipse>
                        <rect id="Rectangle-path" stroke="none" fill="url(#linearGradient-5)" fill-rule="nonzero" x="56.2527638" y="0" width="99.6703638" height="181.300554" rx="3.78686792"></rect>
                        <path d="M61.8171411,2.45177566 L150.35875,2.45177566 C152.687493,2.45177566 154.575312,4.33959455 154.575312,6.66833717 L154.575312,174.638448 C154.575312,176.967191 152.687493,178.85501 150.35875,178.85501 L61.8171411,178.85501 C59.4883985,178.85501 57.6005796,176.967191 57.6005796,174.638448 L57.6005796,6.66833717 C57.6005796,4.33959455 59.4883985,2.45177566 61.8171411,2.45177566 Z" id="Rectangle-path" stroke="none" fill="#FFFFFF" fill-rule="nonzero"></path>
                        <path d="M129.372678,6.87244868 C128.818747,10.7379824 125.673826,13.5994849 121.966773,13.6109376 L89.9621558,13.6109376 C86.2562236,13.5979508 83.1129641,10.7368189 82.5592048,6.87244868 L65.602725,6.87244868 C64.6690963,6.87162198 63.7734382,7.26217034 63.1129858,7.95809018 C62.4525334,8.65401002 62.0814487,9.59823075 62.081449,10.5828233 L62.081449,170.711501 C62.0806651,171.696093 62.4509983,172.640642 63.1108966,173.337146 C63.7707949,174.03365 64.6661418,174.424991 65.5997709,174.42499 L146.58321,174.42499 C147.516838,174.425817 148.412496,174.035269 149.072949,173.339349 C149.733401,172.643429 150.104486,171.699208 150.104486,170.714616 L150.104486,10.5859386 C150.105269,9.60134644 149.734936,8.6567976 149.075038,7.96029345 C148.41514,7.26378929 147.519793,6.87244833 146.586164,6.87244868 L129.372678,6.87244868 Z" id="Shape" stroke="none" fill="#5020A3" fill-rule="nonzero"></path>
                        <path d="M96.0380619,8.98465185 L116.412957,8.98465185 C116.754415,8.98465185 117.031221,9.26145814 117.031221,9.602916 L117.031221,9.72779299 C117.031221,10.0692509 116.754415,10.3460571 116.412957,10.3460571 L96.0380619,10.3460571 C95.696604,10.3460571 95.4197977,10.0692509 95.4197977,9.72779299 L95.4197977,9.602916 C95.4197977,9.26145814 95.696604,8.98465185 96.0380619,8.98465185 Z" id="Rectangle-path" stroke="none" fill="#DBDBDB" fill-rule="nonzero"></path>
                        <ellipse id="Oval" stroke="none" fill="#DBDBDB" fill-rule="nonzero" cx="121.621832" cy="9.52983704" rx="1" ry="1"></ellipse>
                        <path d="M172.007269,164.069587 C165.030158,165.695797 160.241703,161.110011 158.628033,154.081795 L142.596444,94.0927323 C141.001324,87.0372461 145.358344,80.0076645 152.349561,78.3571302 C159.35064,76.7496145 166.326015,81.1404935 167.963822,88.1860402 L181.046291,149.714083 C182.659961,156.75476 178.981289,162.443378 172.007269,164.069587 Z" id="Shape" stroke="none" fill="url(#linearGradient-6)" fill-rule="nonzero"></path>
                        <path d="M162.876647,80.2675044 L162.876647,80.2675044 C168.918744,80.2675044 173.816831,85.1655917 173.816831,91.2076886 L173.816831,157.370055 C173.816831,163.412152 168.918744,168.310239 162.876647,168.310239 L162.876647,168.310239 C156.83455,168.310239 151.936463,163.412152 151.936463,157.370055 L151.936463,91.2076886 C151.936463,85.1655917 156.83455,80.2675044 162.876647,80.2675044 Z" id="Rectangle-path" stroke="none" fill="#FDAD80" fill-rule="nonzero" transform="translate(162.876647, 124.288872) rotate(-13.010000) translate(-162.876647, -124.288872) "></path>
                        <polygon id="Rectangle-path" stroke="none" fill="url(#linearGradient-7)" fill-rule="nonzero" points="88.9032936 213.759323 180.406388 213.759323 180.406388 235.255196 88.9032936 235.255196"></polygon>
                        <polygon id="Rectangle-path" stroke="none" fill="#0C3160" fill-rule="nonzero" points="91.3763502 216.251598 177.933331 216.251598 177.933331 233.074455 91.3763502 233.074455"></polygon>
                        <path d="M126.503028,56.8176423 L119.411538,51.4374434 L122.502859,47.3874963 L117.343445,43.3063958 L114.119197,47.4248804 L106.826771,41.895145 C106.256194,41.4636698 105.471456,41.4636698 104.900878,41.895145 L85.5708498,56.3970709 C84.8382068,57.0201397 84.1519336,57.7335534 84.1457509,59.3659937 L84.1241117,59.3659937 L84.0746506,81.7092402 L84.0746506,82.7030349 C84.0730087,83.3491557 84.3261265,83.9694701 84.7783203,84.427515 C85.2305141,84.8855598 85.8447424,85.1438142 86.4858808,85.1454646 L87.4380075,85.1454646 L105.766448,85.185964 L125.050107,85.2295788 C125.691246,85.2312334 126.306777,84.9761487 126.761289,84.5204408 C127.215802,84.0647329 127.472065,83.4457314 127.473703,82.7996106 L127.526255,59.5030688 L127.566442,59.5030688 C127.566442,57.8675132 127.235671,57.4407111 126.503028,56.8176423 Z" id="Shape" stroke="none" fill="url(#linearGradient-8)" fill-rule="nonzero"></path>
                        <path d="M125.662189,59.8426413 C125.662189,58.3535069 125.353057,57.9734349 124.691514,57.3970963 L106.740214,43.7923894 C106.219098,43.3982983 105.502369,43.3982983 104.981253,43.7923894 L87.3452679,57.0263704 C86.4831373,57.6469819 85.9938417,58.6672252 86.0469132,59.7336042 L86.0283653,59.7336042 L85.9819955,80.1204148 L85.9819955,81.0269799 C85.9802851,82.2542442 86.9652189,83.2510143 88.1830158,83.2544508 L89.051677,83.2544508 L105.775722,83.2918349 L123.368429,83.3323344 C124.586229,83.3340581 125.575313,82.3414702 125.578723,81.1142095 L125.625093,59.858218 L125.662189,59.8426413 Z" id="Shape" stroke="none" fill="url(#linearGradient-9)" fill-rule="nonzero"></path>
                        <path d="M86.3267003,59.8596858 L125.224789,59.8596858 L125.224789,81.4272117 C125.224789,81.7725803 125.08865,82.1038034 124.846321,82.3480159 C124.603992,82.5922284 124.275323,82.7294255 123.932617,82.7294255 L87.7641645,82.7294255 C87.3862048,82.7294255 87.0237253,82.5781148 86.7564674,82.30878 C86.4892095,82.0394452 86.3390656,81.6741488 86.3390656,81.2932519 L86.3390656,59.8596858 L86.3267003,59.8596858 Z" id="Shape" stroke="none" fill="#6C63FF" fill-rule="nonzero" transform="translate(105.775745, 71.294556) rotate(0.130000) translate(-105.775745, -71.294556) "></path>
                        <path d="M86.3267003,59.8596858 L125.224789,59.8596858 L125.224789,81.4272117 C125.224789,81.7725803 125.08865,82.1038034 124.846321,82.3480159 C124.603992,82.5922284 124.275323,82.7294255 123.932617,82.7294255 L87.7641645,82.7294255 C87.3862048,82.7294255 87.0237253,82.5781148 86.7564674,82.30878 C86.4892095,82.0394452 86.3390656,81.6741488 86.3390656,81.2932519 L86.3390656,59.8596858 L86.3267003,59.8596858 Z" id="Shape" stroke="none" fill="#FFFFFF" fill-rule="nonzero" opacity="0.2" transform="translate(105.775745, 71.294556) rotate(0.130000) translate(-105.775745, -71.294556) "></path>
                        <path d="M86.3560453,59.8083725 L86.3127668,79.6188444 C86.3111254,80.426082 86.6277531,81.2009141 87.1929952,81.7728858 C87.7582373,82.3448574 88.5257918,82.6671153 89.3268045,82.6687661 L122.184453,82.7435344" id="Shape" stroke="none" fill="#F5F5F5" fill-rule="nonzero"></path>
                        <path d="M125.257226,59.8956021 L125.213947,79.7185354 C125.212309,80.525773 124.892536,81.2992923 124.324975,81.8689269 C123.757414,82.4385616 122.988557,82.7576499 122.187544,82.7559958 L89.3298958,82.6812275" id="Shape" stroke="none" fill="#FFFFFF" fill-rule="nonzero"></path>
                        <path d="M104.978162,44.3095365 L87.6667653,57.1759069 C86.8215952,57.7748604 86.3397614,58.7683558 86.3900498,59.8083725 L125.306687,59.9329862 C125.306687,58.4843513 124.997555,58.1042794 124.35456,57.5559788 L106.718575,44.3157672 C106.20433,43.9239809 105.495156,43.9214421 104.978162,44.3095365 Z" id="Shape" stroke="none" fill="#6C63FF" fill-rule="nonzero"></path>
                        <path d="M104.978162,44.3095365 L87.6667653,57.1759069 C86.8215952,57.7748604 86.3397614,58.7683558 86.3900498,59.8083725 L125.306687,59.9329862 C125.306687,58.4843513 124.997555,58.1042794 124.35456,57.5559788 L106.718575,44.3157672 C106.20433,43.9239809 105.495156,43.9214421 104.978162,44.3095365 Z" id="Shape" stroke="none" fill="#000000" fill-rule="nonzero" opacity="0.2"></path>
                        <polygon id="Shape" stroke="none" fill="url(#linearGradient-10)" fill-rule="nonzero" points="121.043755 48.7862857 116.335674 45.0665651 104.956522 59.5902984 98.8418898 54.8113608 95.0117434 59.7180275 103.911656 66.5686688 103.911656 66.5686688 106.118859 68.3537608"></polygon>
                        <polygon id="Shape" stroke="none" fill="#FFFFFF" fill-rule="nonzero" points="120.697528 48.6959407 116.431505 45.3999069 105.126545 60.256982 98.8480725 55.4063915 95.5743638 59.7055661 103.985848 66.1979429 103.985848 66.1979429 106.143589 67.8272677"></polygon>
                        <path d="M84.3745087,96.5164698 C80.9248384,102.000783 73.7281932,103.648651 68.2656362,100.205037 L39.0526551,81.0363259 C33.6106332,77.5598477 31.9754714,70.3072762 35.3925313,64.8022688 C38.8422016,59.317956 46.0388468,57.6700872 51.5014038,61.1137016 L80.7143849,80.2824127 C86.1564068,83.7588909 87.7915686,91.0114624 84.3745087,96.5164698 Z" id="Shape" stroke="none" fill="url(#linearGradient-11)" fill-rule="nonzero"></path>
                        <path d="M82.8226657,95.5070984 C79.5926024,100.643671 72.852685,102.187248 67.7370204,98.9620148 L40.3757404,81.0082878 C35.2787771,77.7531232 33.7471032,70.9608288 36.9474657,65.8054095 C40.177529,60.6688369 46.9174464,59.1252601 52.0331109,62.3504931 L79.3943909,80.3042201 C84.4913542,83.5593848 86.0230281,90.3516792 82.8226657,95.5070984 Z" id="Shape" stroke="none" fill="#FDAD80" fill-rule="nonzero"></path>
                        <path d="M78.4144423,128.174595 C74.9816946,133.634966 67.8173571,135.276068 62.3797615,131.847585 L39.3246913,116.816051 C33.906426,113.356627 32.2779792,106.136614 35.6800242,100.656762 C39.1127719,95.1963904 46.2771094,93.5552886 51.7147049,96.9837714 L74.7666838,112.018421 C80.184156,115.476695 81.8138187,122.694583 78.4144423,128.174595 Z" id="Shape" stroke="none" fill="url(#linearGradient-12)" fill-rule="nonzero"></path>
                        <path d="M72.6274898,159.994717 C69.164148,165.505183 61.9345829,167.161667 56.447517,163.701977 L42.1687064,153.203268 C36.7007334,149.713012 35.0570226,142.427265 38.4900347,136.897558 C41.9574394,131.391485 49.1861503,129.740763 54.6700075,133.20276 L68.9488181,143.698353 C74.4111434,147.188228 76.0542129,154.466959 72.6274898,159.994717 Z" id="Shape" stroke="none" fill="url(#linearGradient-13)" fill-rule="nonzero"></path>
                        <path d="M71.4744272,159.212766 C68.2443639,164.349339 61.5044465,165.892916 56.3887819,162.667683 L43.0744634,152.879272 C37.9775001,149.624107 36.4458262,142.831813 39.6461887,137.676394 C42.876252,132.539821 49.6161694,130.996244 54.731834,134.221477 L68.0461525,144.009888 C73.1431158,147.265052 74.6747896,154.057347 71.4744272,159.212766 Z" id="Shape" stroke="none" fill="#FDAD80" fill-rule="nonzero"></path>
                        <polygon id="Rectangle-path" stroke="none" fill="url(#linearGradient-14)" fill-rule="nonzero" points="74.556474 100.803183 137.619417 100.803183 137.619417 119.806781 74.556474 119.806781"></polygon>
                        <rect id="Rectangle-path" stroke="none" fill="#69F0AE" fill-rule="nonzero" x="76.7203985" y="102.672389" width="58.7350943" height="13.7075132"></rect>
                        <g id="Group-2" stroke="none" stroke-width="1" fill="none" fill-rule="evenodd" transform="translate(204.800000, 38.912000)">
                            <polygon id="Shape" fill="url(#linearGradient-15)" fill-rule="nonzero" points="49.2576201 32.8772628 51.1072604 33.1680282 50.8187371 32.8928395 50.9733031 32.8928395 50.7311497 32.8097637 17.1954717 0.758067019 9.05499371 13.702321 2.28500126 25.5094744 5.42269182 26.0027372 4.03159748 32.3995767"></polygon>
                            <polygon id="Shape" fill="#6C63FF" fill-rule="nonzero" points="10.4615447 14.3773122 4.27890314 25.1823633 49.6182742 32.622843 20.4155975 12.1290723"></polygon>
                            <polygon id="Shape" fill="#000000" fill-rule="nonzero" opacity="0.2" points="10.4615447 14.3773122 4.27890314 25.1823633 49.6182742 32.622843 20.4155975 12.1290723"></polygon>
                            <polygon id="Shape" fill="#6C63FF" fill-rule="nonzero" points="17.9064755 2.53900529 49.6182742 32.622843 10.4615447 14.3773122"></polygon>
                            <polygon id="Shape" fill="#6C63FF" fill-rule="nonzero" points="5.94821635 31.5324727 49.4946214 32.3684233 8.84375346 17.8197672"></polygon>
                        </g>
                        <path d="M77.1470008,127.36149 C73.9169375,132.498063 67.17702,134.041639 62.0613555,130.816406 L40.3726491,116.672745 C35.2756858,113.41758 33.7440119,106.625286 36.9443743,101.469867 C40.169355,96.3278002 46.9103436,94.7770177 52.0300196,97.9993735 L73.718726,112.143035 C78.8251144,115.398827 80.3578584,122.202831 77.1470008,127.36149 Z" id="Shape" stroke="none" fill="#FDAD80" fill-rule="nonzero"></path>
                    </g>
                </g>
            </g>
        </g>
    </g>
</svg>