<?xml version="1.0" encoding="UTF-8"?>
<svg width="288px" height="288px" viewBox="0 0 288 288" version="1.1" xmlns="http://www.w3.org/2000/svg" xmlns:xlink="http://www.w3.org/1999/xlink">
    <!-- Generator: Sketch 52.4 (67378) - http://www.bohemiancoding.com/sketch -->
    <title>undraw_live_collaboration_2r4y</title>
    <desc>Created with Sketch.</desc>
    <defs>
        <circle id="path-1" cx="143.36" cy="143.36" r="143.36"></circle>
        <linearGradient x1="50.003653%" y1="100.017289%" x2="50.003653%" y2="0.00485949042%" id="linearGradient-3">
            <stop stop-color="#808080" stop-opacity="0.25" offset="0%"></stop>
            <stop stop-color="#808080" stop-opacity="0.12" offset="54%"></stop>
            <stop stop-color="#808080" stop-opacity="0.1" offset="100%"></stop>
        </linearGradient>
        <linearGradient x1="45734%" y1="29483%" x2="45734%" y2="14549%" id="linearGradient-4">
            <stop stop-color="#808080" stop-opacity="0.25" offset="0%"></stop>
            <stop stop-color="#808080" stop-opacity="0.12" offset="54%"></stop>
            <stop stop-color="#808080" stop-opacity="0.1" offset="100%"></stop>
        </linearGradient>
        <linearGradient x1="59152%" y1="65418%" x2="59152%" y2="7222%" id="linearGradient-5">
            <stop stop-color="#808080" stop-opacity="0.25" offset="0%"></stop>
            <stop stop-color="#808080" stop-opacity="0.12" offset="54%"></stop>
            <stop stop-color="#808080" stop-opacity="0.1" offset="100%"></stop>
        </linearGradient>
        <linearGradient x1="46300%" y1="59500%" x2="46300%" y2="0%" id="linearGradient-6">
            <stop stop-color="#808080" stop-opacity="0.25" offset="0%"></stop>
            <stop stop-color="#808080" stop-opacity="0.12" offset="54%"></stop>
            <stop stop-color="#808080" stop-opacity="0.1" offset="100%"></stop>
        </linearGradient>
        <linearGradient x1="61789%" y1="23770%" x2="61789%" y2="15270%" id="linearGradient-7">
            <stop stop-color="#808080" stop-opacity="0.25" offset="0%"></stop>
            <stop stop-color="#808080" stop-opacity="0.12" offset="54%"></stop>
            <stop stop-color="#808080" stop-opacity="0.1" offset="100%"></stop>
        </linearGradient>
        <linearGradient x1="21800%" y1="19400%" x2="21800%" y2="9800%" id="linearGradient-8">
            <stop stop-color="#808080" stop-opacity="0.25" offset="0%"></stop>
            <stop stop-color="#808080" stop-opacity="0.12" offset="54%"></stop>
            <stop stop-color="#808080" stop-opacity="0.1" offset="100%"></stop>
        </linearGradient>
        <linearGradient x1="77188%" y1="59991%" x2="77188%" y2="32265%" id="linearGradient-9">
            <stop stop-color="#808080" stop-opacity="0.25" offset="0%"></stop>
            <stop stop-color="#808080" stop-opacity="0.12" offset="54%"></stop>
            <stop stop-color="#808080" stop-opacity="0.1" offset="100%"></stop>
        </linearGradient>
        <linearGradient x1="68394%" y1="82736%" x2="68394%" y2="75836%" id="linearGradient-10">
            <stop stop-color="#808080" stop-opacity="0.25" offset="0%"></stop>
            <stop stop-color="#808080" stop-opacity="0.12" offset="54%"></stop>
            <stop stop-color="#808080" stop-opacity="0.1" offset="100%"></stop>
        </linearGradient>
        <linearGradient x1="43287%" y1="50119%" x2="43287%" y2="37779%" id="linearGradient-11">
            <stop stop-color="#808080" stop-opacity="0.25" offset="0%"></stop>
            <stop stop-color="#808080" stop-opacity="0.12" offset="54%"></stop>
            <stop stop-color="#808080" stop-opacity="0.1" offset="100%"></stop>
        </linearGradient>
        <linearGradient x1="42807%" y1="60348%" x2="42807%" y2="49395%" id="linearGradient-12">
            <stop stop-color="#808080" stop-opacity="0.25" offset="0%"></stop>
            <stop stop-color="#808080" stop-opacity="0.12" offset="54%"></stop>
            <stop stop-color="#808080" stop-opacity="0.1" offset="100%"></stop>
        </linearGradient>
        <linearGradient x1="35252%" y1="38093%" x2="35252%" y2="20104%" id="linearGradient-13">
            <stop stop-color="#808080" stop-opacity="0.25" offset="0%"></stop>
            <stop stop-color="#808080" stop-opacity="0.12" offset="54%"></stop>
            <stop stop-color="#808080" stop-opacity="0.1" offset="100%"></stop>
        </linearGradient>
        <linearGradient x1="44205%" y1="39965%" x2="44205%" y2="26262%" id="linearGradient-14">
            <stop stop-color="#808080" stop-opacity="0.25" offset="0%"></stop>
            <stop stop-color="#808080" stop-opacity="0.12" offset="54%"></stop>
            <stop stop-color="#808080" stop-opacity="0.1" offset="100%"></stop>
        </linearGradient>
    </defs>
    <g id="Page-1" stroke="none" stroke-width="1" fill="none" fill-rule="evenodd">
        <g id="landing-copy" transform="translate(-241.000000, -274.000000)">
            <g id="undraw_live_collaboration_2r4y" transform="translate(241.664000, 274.432000)">
                <mask id="mask-2" fill="white">
                    <use xlink:href="#path-1"></use>
                </mask>
                <use id="Mask" fill="#DDE3E9" xlink:href="#path-1"></use>
                <g id="Group-2" mask="url(#mask-2)">
                    <g transform="translate(63.488000, 45.056000)" id="undraw_confirmed_81ex">
                        <g>
                            <path d="M155.307821,163.280111 C155.311105,149.868172 145.077489,138.656884 131.685662,137.401202 C118.293834,136.14552 106.143476,145.257977 103.639103,158.435403 L23.5397542,156.269044 L24.4190852,169.990384 C24.4190852,169.990384 12.9974103,196.268287 73.0261905,203.269755 L73.0261905,229.829252 L142.422734,229.829252 L142.422734,185.670088 C150.397006,181.014277 155.300236,172.494102 155.307821,163.280111 Z" id="Shape" fill="url(#linearGradient-3)" fill-rule="nonzero"></path>
                            <path d="M27.1694014,170.566373 C27.1694014,170.566373 16.2323213,195.730697 73.7193857,202.44417 L73.7193857,227.890089 L140.179477,227.890089 L140.179477,160.502564 L26.3157443,157.424222 L27.1694014,170.566373 Z" id="Shape" fill="#FDAD80" fill-rule="nonzero"></path>
                            <path d="M60.3850055,65.55396 C56.777493,71.2300774 49.2498752,72.9356831 43.5365107,69.3714877 L7.85300322,45.9255313 C2.16039346,42.3284703 0.449831929,34.8226611 4.02438334,29.125849 C7.63136949,23.4575238 15.1493533,21.7528021 20.8600412,25.3083213 L56.5435487,48.7542777 C62.2406855,52.3471304 63.957185,59.8538261 60.3850055,65.55396 Z" id="Shape" fill="url(#linearGradient-4)" fill-rule="nonzero"></path>
                            <path d="M58.4081155,64.2739842 C55.0548436,69.5500378 48.0578365,71.1355295 42.7470384,67.822717 L9.56673584,46.0119296 C4.27535229,42.6683727 2.68525376,35.691637 6.00769188,30.396225 C9.36096377,25.1201714 16.3579708,23.5346796 21.668769,26.8474921 L54.842653,48.6454798 C60.1441257,51.9874472 61.7380832,58.9742469 58.4081155,64.2739842 Z" id="Shape" fill="#FDAD80" fill-rule="nonzero"></path>
                            <ellipse id="Oval" fill="#E99B74" fill-rule="nonzero" cx="127.563966" cy="164.137695" rx="24.958237" ry="24.8859292"></ellipse>
                            <path d="M48.6181265,0 L101.91435,0 C115.770069,-2.54525444e-15 127.00235,11.2322802 127.00235,25.088 L127.00235,161.135677 C127.00235,174.991397 115.770069,186.223677 101.91435,186.223677 L48.6181265,186.223677 C34.7624067,186.223677 23.5301265,174.991397 23.5301265,161.135677 L23.5301265,25.088 C23.5301265,11.2322802 34.7624067,-4.56017292e-15 48.6181265,-7.10542736e-15 Z" id="Rectangle-path" fill="url(#linearGradient-5)" fill-rule="nonzero"></path>
                            <polygon id="Rectangle-path" fill="#FFFFFF" fill-rule="nonzero" points="24.9261447 2.51835236 125.599913 2.51835236 125.599913 183.711725 24.9261447 183.711725"></polygon>
                            <path d="M99.4682871,9.11026635 C98.8923177,12.9105076 95.622273,15.7236767 91.7677312,15.7349359 L58.4897807,15.7349359 C54.6364046,15.7221684 51.3680876,12.9093637 50.7922965,9.11026635 L33.1611874,9.11026635 C32.1904134,9.10945362 31.2591208,9.49340525 30.5723917,10.1775704 C29.8856626,10.8617355 29.4998139,11.7900074 29.4998142,12.7579693 L29.4998142,170.181923 C29.4989991,171.149885 29.8840664,172.078479 30.5702193,172.763219 C31.2563723,173.447958 32.1873414,173.832689 33.1581158,173.832689 L117.363556,173.832689 C118.33433,173.833502 119.265622,173.44955 119.952351,172.765385 C120.63908,172.08122 121.024929,171.152948 121.024929,170.184986 L121.024929,12.761032 C121.025744,11.7930705 120.640677,10.8644759 119.954524,10.1797364 C119.268371,9.49499686 118.337402,9.11026601 117.366627,9.11026635 L99.4682871,9.11026635 Z" id="Shape" fill="#5020A3" fill-rule="nonzero"></path>
                            <g id="undraw_job_hunt_byf9" transform="translate(26.315744, 23.359558)" fill-rule="nonzero">
                                <g id="Group" opacity="0.5" transform="translate(6.315215, 0.000000)" fill="url(#linearGradient-6)">
                                    <polygon id="Rectangle-path" points="0.12954288 0 82.1318053 0 82.1318053 96.0683838 0.12954288 96.0683838"></polygon>
                                </g>
                                <polygon id="Rectangle-path" fill="#FFFFFF" points="8.96436731 1.54678171 86.7014304 1.54678171 86.7014304 93.9419626 8.96436731 93.9419626"></polygon>
                                <g id="Group" opacity="0.5" transform="translate(37.567435, 13.885514)" fill="url(#linearGradient-7)">
                                    <path d="M14.4926097,2.35407905 L14.4926097,0.0322918937 L6.03022107,0.0322918937 L6.03022107,2.35407905 L0.102015018,2.35407905 L0.102015018,13.7563467 L20.4289122,13.7563467 L20.4289122,2.35407905 L14.4926097,2.35407905 Z M7.08113769,0.876724915 L13.4335967,0.876724915 L13.4335967,2.35407905 L7.08923412,2.35407905 L7.08113769,0.876724915 Z" id="Shape"></path>
                                </g>
                                <polygon id="Rectangle-path" fill="#6C63FF" points="38.5276719 16.6238669 57.1381259 16.6238669 57.1381259 27.0622215 38.5276719 27.0622215"></polygon>
                                <polygon id="Shape" fill="#6C63FF" points="43.9555185 14.4974457 43.9555185 17.2035064 44.9254708 17.2035064 44.9254708 15.2708365 50.7403269 15.2708365 50.7403269 17.2035064 51.7102792 17.2035064 51.7102792 14.4974457"></polygon>
                                <polygon id="Rectangle-path" fill="#E0E0E0" points="20.5956987 42.0844105 75.2644134 42.0844105 75.2644134 44.4045831 20.5956987 44.4045831"></polygon>
                                <polygon id="Rectangle-path" fill="#E0E0E0" points="20.5956987 57.355247 75.2644134 57.355247 75.2644134 59.6754196 20.5956987 59.6754196"></polygon>
                                <polygon id="Rectangle-path" fill="#E0E0E0" points="20.5956987 61.4143381 75.2644134 61.4143381 75.2644134 63.7345106 20.5956987 63.7345106"></polygon>
                                <polygon id="Rectangle-path" fill="#E0E0E0" points="20.5956987 53.2945414 43.6640471 53.2945414 43.6640471 55.614714 20.5956987 55.614714"></polygon>
                                <polygon id="Rectangle-path" fill="#3AD29F" opacity="0.6" points="58.010921 53.2945414 75.2644134 53.2945414 75.2644134 55.614714 58.010921 55.614714"></polygon>
                                <polygon id="Rectangle-path" fill="#6C63FF" points="39.7874764 70.8855505 57.0409687 70.8855505 57.0409687 73.2057231 39.7874764 73.2057231"></polygon>
                                <g id="Group" opacity="0.5" transform="translate(0.000000, 15.823028)" fill="url(#linearGradient-8)">
                                    <ellipse id="Oval" cx="7.77257281" cy="7.75005449" rx="7.77257281" ry="7.75005449"></ellipse>
                                </g>
                                <ellipse id="Oval" fill="#69F0AE" cx="50.2245608" cy="119.197745" rx="16.2066474" ry="16.1596943"></ellipse>
                                <polygon id="Shape" fill="#FFFFFF" points="42.8437985 118.015887 49.3902558 124.000063 58.6650477 110.397912 61.9382763 113.118342 49.3902558 129.43707 40.1154639 119.102518"></polygon>
                            </g>
                            <path d="M64.8871383,9.22862543 L85.9245414,9.22862543 C86.3106916,9.22862543 86.6237282,9.54166201 86.6237282,9.9278122 L86.6237282,9.9278122 C86.6237282,10.3139624 86.3106916,10.626999 85.9245414,10.626999 L64.8871383,10.626999 C64.5009881,10.626999 64.1879515,10.3139624 64.1879515,9.9278122 L64.1879515,9.9278122 C64.1879515,9.54166201 64.5009881,9.22862543 64.8871383,9.22862543 Z" id="Rectangle-path" fill="#DBDBDB" fill-rule="nonzero"></path>
                            <circle id="Oval" fill="#DBDBDB" fill-rule="nonzero" cx="91.5726252" cy="9.97423069" r="1.024"></circle>
                            <path d="M143.696801,168.528012 C136.453553,170.19838 131.482445,165.48807 129.807223,158.269006 L113.164119,96.6477718 C111.508155,89.4006975 116.03137,82.1802313 123.289262,80.4848775 C130.557393,78.8337106 137.798839,83.3438217 139.499119,90.5806865 L153.08061,153.792291 C154.755832,161.014554 150.93684,166.857644 143.696801,168.528012 Z" id="Shape" fill="url(#linearGradient-9)" fill-rule="nonzero"></path>
                            <path d="M134.217797,82.4439515 L134.217797,82.4439515 C140.490366,82.4439515 145.575287,87.528873 145.575287,93.8014416 L145.575287,161.519951 C145.575287,167.792519 140.490366,172.877441 134.217797,172.877441 L134.217797,172.877441 C127.945229,172.877441 122.860307,167.792519 122.860307,161.519951 L122.860307,93.8014416 C122.860307,87.528873 127.945229,82.4439515 134.217797,82.4439515 Z" id="Rectangle-path" fill="#FDAD80" fill-rule="nonzero" transform="translate(134.217797, 127.660696) rotate(-13.010000) translate(-134.217797, -127.660696) "></path>
                            <polygon id="Rectangle-path" fill="url(#linearGradient-10)" fill-rule="nonzero" points="57.4228797 219.563847 152.416298 219.563847 152.416298 241.643429 57.4228797 241.643429"></polygon>
                            <polygon id="Rectangle-path" fill="#0C3160" fill-rule="nonzero" points="59.9902694 222.123798 149.848909 222.123798 149.848909 239.403471 59.9902694 239.403471"></polygon>
                            <path d="M46.5339381,131.658309 C42.9702506,137.266955 35.5326342,138.95262 29.8876252,135.431038 L5.95634408,119.99133 C0.331402708,116.437967 -1.35916018,109.021899 2.17265353,103.393244 C5.73634109,97.7845991 13.1739574,96.098934 18.8189664,99.6205155 L42.7502476,115.060223 C48.375189,118.613586 50.0657518,126.029655 46.5339381,131.658309 Z" id="Shape" fill="url(#linearGradient-11)" fill-rule="nonzero"></path>
                            <path d="M40.5262463,164.339291 C36.9307976,169.999391 29.4254656,171.700856 23.7290992,168.147219 L8.90563299,157.369823 C3.22908781,153.784791 1.52267874,146.301203 5.08664082,140.62134 C8.68208946,134.961241 16.1874215,133.259775 21.8837879,136.813412 L36.7072541,147.594008 C42.3818442,151.17891 44.0880312,158.660095 40.5262463,164.339291 Z" id="Shape" fill="url(#linearGradient-12)" fill-rule="nonzero"></path>
                            <g id="Group" opacity="0.5" transform="translate(46.213014, 64.318783)" fill="url(#linearGradient-13)" fill-rule="nonzero">
                                <ellipse id="Oval" cx="29.0500144" cy="28.7962553" rx="28.8638786" ry="28.7802556"></ellipse>
                            </g>
                            <path d="M39.3292008,163.536106 C35.9759289,168.81216 28.9789219,170.397652 23.6681237,167.084839 L9.84273023,157.049829 C4.55134668,153.706272 2.96124815,146.729537 6.28368627,141.434125 C9.63695817,136.158071 16.6339652,134.572579 21.9447634,137.885392 L35.7669476,147.939602 C41.0477463,151.281317 42.6379988,158.243872 39.3292008,163.536106 Z" id="Shape" fill="#FDAD80" fill-rule="nonzero"></path>
                            <path d="M45.2181509,130.810326 C41.864879,136.086379 34.867872,137.671871 29.5570738,134.359058 L7.04106623,119.831333 C1.74968268,116.487776 0.159584152,109.511041 3.48202227,104.215629 C6.83529417,98.939575 13.8323012,97.3540832 19.1430994,100.666896 L41.659107,115.194621 C46.9504905,118.538178 48.540589,125.514914 45.2181509,130.810326 Z" id="Shape" fill="#FDAD80" fill-rule="nonzero"></path>
                            <path d="M52.7213473,99.1309248 C49.1400917,104.764161 41.6689353,106.456777 35.9980127,102.919653 L5.67072198,83.2304256 C0.0211177906,79.6595454 -1.67641611,72.2100341 1.87098524,66.555541 C5.45224085,60.9223046 12.9233973,59.2296887 18.5943198,62.7668127 L48.9216106,82.4560402 C54.5712147,86.0269204 56.2687486,93.4764317 52.7213473,99.1309248 Z" id="Shape" fill="url(#linearGradient-14)" fill-rule="nonzero"></path>
                            <path d="M51.1103103,98.1069442 C47.7570384,103.382998 40.7600313,104.96849 35.4492332,101.655677 L7.04427546,83.2144259 C1.75289192,79.8708689 0.162793389,72.8941333 3.48523151,67.5987213 C6.8385034,62.3226677 13.8355104,60.7371759 19.1463086,64.0499884 L47.5480571,82.4912396 C52.8405721,85.8337448 54.432155,92.8107018 51.1103103,98.1069442 Z" id="Shape" fill="#FDAD80" fill-rule="nonzero"></path>
                        </g>
                    </g>
                </g>
            </g>
        </g>
    </g>
</svg>